<?xml version="1.0" encoding="UTF-8" standalone="no"?>
<!DOCTYPE svg PUBLIC "-//W3C//DTD SVG 1.1//EN"
 "http://www.w3.org/Graphics/SVG/1.1/DTD/svg11.dtd">
<!-- Generated by graphviz version 2.47.3 (20210619.1520)
 -->
<!-- Title: dependencies Pages: 1 -->
<svg width="429pt" height="174pt"
 viewBox="0.00 0.00 429.00 173.80" xmlns="http://www.w3.org/2000/svg" xmlns:xlink="http://www.w3.org/1999/xlink">
<g id="graph0" class="graph" transform="scale(1 1) rotate(0) translate(4 169.8)">
<title>dependencies</title>
<polygon fill="white" stroke="transparent" points="-4,4 -4,-169.8 425,-169.8 425,4 -4,4"/>
<text text-anchor="middle" x="210.5" y="-8.2" font-family="sans-serif" font-size="14.00">dependencies</text>
<g id="clust1" class="cluster">
<title>cluster_AuthModule</title>
<polygon fill="none" stroke="black" stroke-dasharray="1,5" points="8,-32.8 8,-157.8 413,-157.8 413,-32.8 8,-32.8"/>
</g>
<g id="clust2" class="cluster">
<title>cluster_AuthModule_declarations</title>
<polygon fill="none" stroke="black" points="275,-40.8 275,-92.8 405,-92.8 405,-40.8 275,-40.8"/>
</g>
<g id="clust4" class="cluster">
<title>cluster_AuthModule_imports</title>
<polygon fill="none" stroke="black" points="16,-40.8 16,-92.8 267,-92.8 267,-40.8 16,-40.8"/>
</g>
<!-- LoginComponent -->
<g id="node1" class="node">
<title>LoginComponent</title>
<polygon fill="#ffffb3" stroke="black" points="397.28,-84.8 282.72,-84.8 282.72,-48.8 397.28,-48.8 397.28,-84.8"/>
<text text-anchor="middle" x="340" y="-62.6" font-family="Times,serif" font-size="14.00">LoginComponent</text>
</g>
<!-- AuthModule -->
<g id="node2" class="node">
<title>AuthModule</title>
<polygon fill="#8dd3c7" stroke="black" points="249.55,-149.8 246.55,-153.8 225.55,-153.8 222.55,-149.8 162.45,-149.8 162.45,-113.8 249.55,-113.8 249.55,-149.8"/>
<text text-anchor="middle" x="206" y="-127.6" font-family="Times,serif" font-size="14.00">AuthModule</text>
</g>
<!-- LoginComponent&#45;&gt;AuthModule -->
<g id="edge1" class="edge">
<title>LoginComponent&#45;&gt;AuthModule</title>
<path fill="none" stroke="black" d="M340,-84.91C340,-104.14 340,-131.8 340,-131.8 340,-131.8 259.88,-131.8 259.88,-131.8"/>
<polygon fill="black" stroke="black" points="259.88,-128.3 249.88,-131.8 259.88,-135.3 259.88,-128.3"/>
</g>
<!-- MaterialModule -->
<g id="node3" class="node">
<title>MaterialModule</title>
<polygon fill="#8dd3c7" stroke="black" points="259.47,-84.8 256.47,-88.8 235.47,-88.8 232.47,-84.8 152.53,-84.8 152.53,-48.8 259.47,-48.8 259.47,-84.8"/>
<text text-anchor="middle" x="206" y="-62.6" font-family="Times,serif" font-size="14.00">MaterialModule</text>
</g>
<!-- MaterialModule&#45;&gt;AuthModule -->
<g id="edge2" class="edge">
<title>MaterialModule&#45;&gt;AuthModule</title>
<path fill="none" stroke="black" d="M206,-84.91C206,-84.91 206,-103.79 206,-103.79"/>
<polygon fill="black" stroke="black" points="202.5,-103.79 206,-113.79 209.5,-103.79 202.5,-103.79"/>
</g>
<!-- ReusableModule -->
<g id="node4" class="node">
<title>ReusableModule</title>
<polygon fill="#8dd3c7" stroke="black" points="134.37,-84.8 131.37,-88.8 110.37,-88.8 107.37,-84.8 23.63,-84.8 23.63,-48.8 134.37,-48.8 134.37,-84.8"/>
<text text-anchor="middle" x="79" y="-62.6" font-family="Times,serif" font-size="14.00">ReusableModule</text>
</g>
<!-- ReusableModule&#45;&gt;AuthModule -->
<g id="edge3" class="edge">
<title>ReusableModule&#45;&gt;AuthModule</title>
<path fill="none" stroke="black" d="M79,-84.91C79,-104.14 79,-131.8 79,-131.8 79,-131.8 152.29,-131.8 152.29,-131.8"/>
<polygon fill="black" stroke="black" points="152.29,-135.3 162.29,-131.8 152.29,-128.3 152.29,-135.3"/>
</g>
</g>
</svg>
