<svg id="ico.checkmark" xmlns="http://www.w3.org/2000/svg" width="24" height="24.001" viewBox="0 0 24 24.001">
  <path id="checkmark-path" data-name="Subtraction 22" d="M13146-1661a11.922,11.922,0,0,1-8.485-3.515A11.921,11.921,0,0,1,13134-1673a11.922,11.922,0,0,1,3.515-8.486A11.922,11.922,0,0,1,13146-1685a12.014,12.014,0,0,1,12,12A12.013,12.013,0,0,1,13146-1661Zm-5.816-13.507a.763.763,0,0,0-.544.225l-1.083,1.083a.776.776,0,0,0,0,1.086l4.983,4.983a.774.774,0,0,0,.542.224.762.762,0,0,0,.541-.224l8.817-8.817a.763.763,0,0,0,.225-.545.753.753,0,0,0-.225-.538l-1.083-1.086a.766.766,0,0,0-.543-.223.766.766,0,0,0-.544.223l-7.188,7.192-3.355-3.358A.763.763,0,0,0,13140.185-1674.506Z" transform="translate(-13134.001 1684.999)" fill="#5d5d5d"/>
</svg>
