<svg id="ico.item.deleted" xmlns="http://www.w3.org/2000/svg" width="25.996" height="25.999" viewBox="0 0 25.996 25.999">
  <path id="cancel-path" data-name="Union 39" d="M10900-636A12.988,12.988,0,0,1,10913-649a13,13,0,0,1,13,13,13,13,0,0,1-13,13A13,13,0,0,1,10900-636Zm2.508,0A10.485,10.485,0,0,0,10913-625.516,10.481,10.481,0,0,0,10923.484-636,10.486,10.486,0,0,0,10913-646.488,10.491,10.491,0,0,0,10902.512-636Zm14.77,5.71-4.285-4.283-4.281,4.283a1.007,1.007,0,0,1-1.418,0,1,1,0,0,1,0-1.427l4.273-4.283-4.273-4.274a1,1,0,0,1,0-1.427.991.991,0,0,1,1.418,0l4.281,4.274,4.285-4.274a.991.991,0,0,1,1.418,0,1,1,0,0,1,0,1.427l-4.273,4.274,4.281,4.283a1.016,1.016,0,0,1,0,1.427,1.043,1.043,0,0,1-.719.294A1.023,1.023,0,0,1,10917.281-630.292Z" transform="translate(-10900.004 648.997)" fill="rgba(0,0,0,0.6)"/>
</svg>
