<svg id="ico.exclamation" xmlns="http://www.w3.org/2000/svg" width="24" height="24.001" viewBox="0 0 24 24.001">
  <path id="exclamation-path" data-name="Subtraction 21" d="M13146-1661a11.922,11.922,0,0,1-8.485-3.515A11.921,11.921,0,0,1,13134-1673a11.922,11.922,0,0,1,3.515-8.486A11.922,11.922,0,0,1,13146-1685a12.014,12.014,0,0,1,12,12A12.013,12.013,0,0,1,13146-1661Zm0-7a2.005,2.005,0,0,0-2,2,2.005,2.005,0,0,0,2,2,2,2,0,0,0,2-2A2,2,0,0,0,13146-1668Zm0-13.995a2.005,2.005,0,0,0-2,2v9a2.007,2.007,0,0,0,2,2,2,2,0,0,0,2-2v-9A2,2,0,0,0,13146-1682Z" transform="translate(-13134.001 1684.999)" fill="#5d5d5d"/>
</svg>
