<svg xmlns="http://www.w3.org/2000/svg" width="23.998" height="24.001" viewBox="0 0 23.998 24.001">
  <path id="ico.inventory" d="M11610.545-3508v-2.286h-13.09V-3508h-2.184v-2.286h-1.09a2.241,2.241,0,0,1-2.181-2.285v-17.145a2.241,2.241,0,0,1,2.181-2.285h19.637a2.243,2.243,0,0,1,2.181,2.285v17.145a2.243,2.243,0,0,1-2.181,2.285h-1.093V-3508Zm-16.363-4.571h19.637v-17.145h-19.637Zm1.09-1.146v-5.714h4.364v2.286h-2.181V-3516h13.09v-10.285h-13.09v1.143h-2.184v-3.428h17.454v14.856Zm12-3.428c-.546-.572,0-2.286,0-2.286h2.183v2.286a4.924,4.924,0,0,1-1.375.254A1.1,1.1,0,0,1,11607.271-3517.143Zm-3.271,0v-2.286h2.181v2.286Zm3.271-3.428v-2.285h2.183v2.285Zm-3.271,0v-2.285h2.181v2.285Zm-8.729,0V-3524h4.364v2.286h-2.181v1.143Z" transform="translate(-11592.001 3531.999)" fill="#5d5d5d"/>
</svg>
