<svg xmlns="http://www.w3.org/2000/svg" width="23.835" height="24" viewBox="0 0 23.835 24">
  <g id="ico.workload" transform="translate(-495 -501.25)">
    <path id="Path_427" data-name="Path 427" d="M517.51,502.905h-2.648v-.414a1.241,1.241,0,0,0-2.483,0v.414H501.621v-.414a1.241,1.241,0,0,0-2.483,0v.414h-2.814a1.414,1.414,0,0,0-1.324,1.49V523.76a1.414,1.414,0,0,0,1.324,1.49H517.51a1.414,1.414,0,0,0,1.324-1.49V504.395A1.414,1.414,0,0,0,517.51,502.905Zm-.165,20.483h-20.69V511.181h20.69Zm0-14.9h-20.69v-3.724h2.483V505.8a1.241,1.241,0,1,0,2.483,0v-1.034h10.759V505.8a1.241,1.241,0,1,0,2.483,0v-1.034h2.483Z" fill="#5d5d5d"/>
    <rect id="Rectangle_979" data-name="Rectangle 979" width="2.477" height="2.477" transform="translate(501.622 512.839)" fill="#5d5d5d"/>
    <rect id="Rectangle_980" data-name="Rectangle 980" width="2.477" height="2.477" transform="translate(505.762 512.839)" fill="#5d5d5d"/>
    <rect id="Rectangle_981" data-name="Rectangle 981" width="2.477" height="2.477" transform="translate(509.901 512.839)" fill="#5d5d5d"/>
    <rect id="Rectangle_982" data-name="Rectangle 982" width="2.477" height="2.477" transform="translate(514.046 512.839)" fill="#5d5d5d"/>
    <rect id="Rectangle_983" data-name="Rectangle 983" width="2.477" height="2.477" transform="translate(497.477 516.151)" fill="#5d5d5d"/>
    <rect id="Rectangle_984" data-name="Rectangle 984" width="2.477" height="2.477" transform="translate(501.622 516.151)" fill="#5d5d5d"/>
    <rect id="Rectangle_985" data-name="Rectangle 985" width="2.477" height="2.477" transform="translate(505.762 516.151)" fill="#5d5d5d"/>
    <rect id="Rectangle_986" data-name="Rectangle 986" width="2.477" height="2.477" transform="translate(509.901 516.151)" fill="#5d5d5d"/>
    <rect id="Rectangle_987" data-name="Rectangle 987" width="2.477" height="2.477" transform="translate(514.046 516.151)" fill="#5d5d5d"/>
    <rect id="Rectangle_988" data-name="Rectangle 988" width="2.477" height="2.477" transform="translate(497.477 519.47)" fill="#5d5d5d"/>
    <rect id="Rectangle_989" data-name="Rectangle 989" width="2.477" height="2.477" transform="translate(501.622 519.47)" fill="#5d5d5d"/>
    <rect id="Rectangle_990" data-name="Rectangle 990" width="2.477" height="2.477" transform="translate(505.762 519.47)" fill="#5d5d5d"/>
    <rect id="Rectangle_991" data-name="Rectangle 991" width="2.477" height="2.477" transform="translate(509.901 519.47)" fill="#5d5d5d"/>
  </g>
</svg>
