<svg xmlns="http://www.w3.org/2000/svg" width="24" height="20.82" viewBox="0 0 24 20.82">
  <path id="ico.dashboard" d="M11595.725-3511.18l-.325-.33a12.052,12.052,0,0,1-3.4-8.326,12.161,12.161,0,0,1,11.947-12.165,12.087,12.087,0,0,1,12.053,12.054,12.11,12.11,0,0,1-3.4,8.436l-.326.33Zm-1.532-8.655a9.871,9.871,0,0,0,2.521,6.574h14.684a9.869,9.869,0,0,0,2.522-6.574,9.894,9.894,0,0,0-9.865-9.864A9.822,9.822,0,0,0,11594.192-3519.835Zm7.672,3.178a2.2,2.2,0,0,1,2.189-2.192c.109,0,.328.111.44.111l3.507-3.836,1.645,1.533-3.508,3.726a1.42,1.42,0,0,1,.107.659,2.2,2.2,0,0,1-2.191,2.192A2.2,2.2,0,0,1,11601.864-3516.657Zm8.106,1.314a1,1,0,0,1-.328-.766,1,1,0,0,1,.328-.77,1.062,1.062,0,0,1,1.536,0,1.006,1.006,0,0,1,.33.77,1,1,0,0,1-.33.766,1,1,0,0,1-.767.33A1.187,1.187,0,0,1,11609.971-3515.343Zm-13.368,0a1,1,0,0,1-.327-.766,1,1,0,0,1,.327-.77,1.059,1.059,0,0,1,1.533,0,1,1,0,0,1,.33.77,1.172,1.172,0,0,1-.33.766,1,1,0,0,1-.767.33A1,1,0,0,1,11596.6-3515.343Zm14.356-3.836a.984.984,0,0,1-.328-.767.983.983,0,0,1,.328-.767,1.056,1.056,0,0,1,1.534,0,.994.994,0,0,1,.329.767.994.994,0,0,1-.329.767,1,1,0,0,1-.768.329A.994.994,0,0,1,11610.959-3519.179Zm-15.341,0a1,1,0,0,1-.331-.767,1,1,0,0,1,.331-.767,1.054,1.054,0,0,1,1.532,0,.994.994,0,0,1,.329.767.994.994,0,0,1-.329.767.994.994,0,0,1-.767.329A.994.994,0,0,1,11595.618-3519.179Zm14.353-3.836a.993.993,0,0,1-.328-.767.992.992,0,0,1,.328-.767,1.062,1.062,0,0,1,1.536,0,.994.994,0,0,1,.33.767,1.187,1.187,0,0,1-.33.767,1,1,0,0,1-.767.33A.861.861,0,0,1,11609.971-3523.015Zm-13.368,0a.992.992,0,0,1-.327-.767.991.991,0,0,1,.327-.767,1.06,1.06,0,0,1,1.533,0,.984.984,0,0,1,.33.767,1.172,1.172,0,0,1-.33.767,1,1,0,0,1-.767.33A1.186,1.186,0,0,1,11596.6-3523.015Zm10.521-2.848a.994.994,0,0,1-.329-.767.994.994,0,0,1,.329-.767,1.056,1.056,0,0,1,1.534,0,.991.991,0,0,1,.329.767,1.18,1.18,0,0,1-.329.767,1,1,0,0,1-.768.33A1,1,0,0,1,11607.123-3525.863Zm-7.669,0a.981.981,0,0,1-.33-.767,1.167,1.167,0,0,1,.33-.767,1.053,1.053,0,0,1,1.533,0,1,1,0,0,1,.326.767,1.186,1.186,0,0,1-.326.767,1.007,1.007,0,0,1-.768.33A.994.994,0,0,1,11599.454-3525.863Zm3.833-.985a1,1,0,0,1-.329-.77,1,1,0,0,1,.329-.767,1.064,1.064,0,0,1,1.536,0,1,1,0,0,1,.326.767,1,1,0,0,1-.326.77,1.006,1.006,0,0,1-.77.327A1,1,0,0,1,11603.287-3526.849Z" transform="translate(-11591.999 3532)" fill="#5d5d5d"/>
</svg>
