<svg id="ico.profile.photo" xmlns="http://www.w3.org/2000/svg" width="24" height="24" viewBox="0 0 24 24">
  <path id="Path_1066" data-name="Path 1066" d="M2.25,1.5a.75.75,0,0,0-.75.75v4.5a.75.75,0,0,1-1.5,0V2.25A2.25,2.25,0,0,1,2.25,0h4.5a.75.75,0,0,1,0,1.5ZM16.5.75A.75.75,0,0,1,17.25,0h4.5A2.25,2.25,0,0,1,24,2.25v4.5a.75.75,0,0,1-1.5,0V2.25a.75.75,0,0,0-.75-.75h-4.5A.75.75,0,0,1,16.5.75ZM.75,16.5a.75.75,0,0,1,.75.75v4.5a.75.75,0,0,0,.75.75h4.5a.75.75,0,0,1,0,1.5H2.25A2.25,2.25,0,0,1,0,21.75v-4.5a.75.75,0,0,1,.75-.75Zm22.5,0a.75.75,0,0,1,.75.75v4.5A2.25,2.25,0,0,1,21.75,24h-4.5a.75.75,0,0,1,0-1.5h4.5a.75.75,0,0,0,.75-.75v-4.5A.75.75,0,0,1,23.25,16.5Z" fill="#5d5d5d"/>
  <path id="Path_1067" data-name="Path 1067" d="M5.75,19.5A1.224,1.224,0,0,1,4.5,18.25c0-1.25,1.25-5,7.5-5s7.5,3.75,7.5,5a1.224,1.224,0,0,1-1.25,1.25ZM12,12A3.75,3.75,0,1,0,8.25,8.25,3.75,3.75,0,0,0,12,12Z" fill="#5d5d5d"/>
</svg>
