<svg xmlns="http://www.w3.org/2000/svg" width="24" height="24" viewBox="0 0 24 24">
  <path id="ico.sysadminadministration" d="M11597.965-3509.888l1.216-1.216,4.178-4.178a.851.851,0,0,1,.808-.222,4.99,4.99,0,0,0,1.262.172,4.835,4.835,0,0,0,4.834-4.825,5.333,5.333,0,0,0-.069-.854l-3.342,3.318a.854.854,0,0,1-1.184,0l-2.758-2.74a.86.86,0,0,1-.251-.606.859.859,0,0,1,.251-.606l3.35-3.341a5.186,5.186,0,0,0-.854-.067,4.837,4.837,0,0,0-3.426,1.434,4.824,4.824,0,0,0-1.4,3.44,5.08,5.08,0,0,0,.169,1.262.851.851,0,0,1-.222.811l-4.178,4.178-.041.038-1.175,1.174a11.875,11.875,0,0,1-2.219-6.953,11.929,11.929,0,0,1,3.516-8.487,11.918,11.918,0,0,1,8.484-3.513,11.93,11.93,0,0,1,8.487,3.513,11.926,11.926,0,0,1,3.513,8.487,11.925,11.925,0,0,1-3.513,8.484,11.933,11.933,0,0,1-8.487,3.516A11.884,11.884,0,0,1,11597.965-3509.888Zm14.026-2.711a10.015,10.015,0,0,0,0-14.143,10.015,10.015,0,0,0-14.144,0,10.041,10.041,0,0,0-2.117,11.015l3.267-3.257a5.851,5.851,0,0,1-.12-1.2,6.532,6.532,0,0,1,3.009-5.542,6.535,6.535,0,0,1,6.292-.423.849.849,0,0,1,.478.63.848.848,0,0,1-.232.749l-3.706,3.7,1.557,1.566,3.7-3.708a.866.866,0,0,1,.752-.239.856.856,0,0,1,.63.487,6.54,6.54,0,0,1-.411,6.274,6.542,6.542,0,0,1-5.514,3.026,5.873,5.873,0,0,1-1.192-.119l-3.283,3.289A10.043,10.043,0,0,0,11611.991-3512.6Z" transform="translate(3531.669 11616.918) rotate(-90)" fill="#5d5d5d"/>
</svg>
