<svg xmlns="http://www.w3.org/2000/svg" width="24.001" height="23.998" viewBox="0 0 24.001 23.998">
  <path id="ico.testmethodmanagement" d="M11602.667-3509.334v-9.332h-9.332A1.335,1.335,0,0,1,11592-3520a1.334,1.334,0,0,1,1.335-1.332h9.332v-9.334A1.334,1.334,0,0,1,11604-3532a1.334,1.334,0,0,1,1.333,1.332v9.334h9.334A1.334,1.334,0,0,1,11616-3520a1.334,1.334,0,0,1-1.332,1.335h-9.334v9.332A1.332,1.332,0,0,1,11604-3508,1.332,1.332,0,0,1,11602.667-3509.334Zm-8.055-.574a.694.694,0,0,1,0-.982l2.1-2.1-1.886-1.886a.666.666,0,0,1,0-.942.668.668,0,0,1,.944,0l1.884,1.886,1.865-1.866a.7.7,0,0,1,.982,0,.694.694,0,0,1,0,.982l-1.865,1.866,1.848,1.845a.666.666,0,0,1,0,.942.665.665,0,0,1-.944,0l-1.846-1.845-2.1,2.1a.692.692,0,0,1-.491.2A.692.692,0,0,1,11594.612-3509.908Zm12.722-1.426a.667.667,0,0,1-.667-.667.666.666,0,0,1,.667-.665H11614a.666.666,0,0,1,.667.665.667.667,0,0,1-.667.667Zm0-2.667a.666.666,0,0,1-.667-.665.667.667,0,0,1,.667-.668H11614a.667.667,0,0,1,.667.668.666.666,0,0,1-.667.665Zm-10.666-9.332V-3526H11594a.665.665,0,0,1-.665-.667.665.665,0,0,1,.665-.665h2.668V-3530a.669.669,0,0,1,.667-.667.667.667,0,0,1,.665.667v2.667h2.667a.665.665,0,0,1,.668.665.666.666,0,0,1-.668.667H11598v2.667a.667.667,0,0,1-.665.667A.669.669,0,0,1,11596.668-3523.333Zm10.666-2.667a.667.667,0,0,1-.667-.667.666.666,0,0,1,.667-.665H11614a.666.666,0,0,1,.667.665.667.667,0,0,1-.667.667Z" transform="translate(-11592 3532)" fill="#5d5d5d"/>
</svg>
