<svg id="ico.flag.english" xmlns="http://www.w3.org/2000/svg" width="36" height="24" viewBox="0 0 36 24">
<path id="Path_455" data-name="Path 455" d="M0,.066H36v24H0Z" transform="translate(0 -0.066)" fill="#fff"/>
<path id="Path_456" data-name="Path 456" d="M0,.066H36V1.913H0ZM0,3.758H36V5.6H0ZM0,7.45H36V9.3H0Zm0,3.692H36v1.847H0Zm0,3.692H36v1.847H0Zm0,3.692H36v1.847H0Zm0,3.692H36v1.847H0Z" transform="translate(0 -0.066)" fill="#b22234"/>
<path id="Path_457" data-name="Path 457" d="M0,.066H14.4v10.2H0Z" transform="translate(0 -0.066)" fill="#3c3b6e"/>
<path id="Path_458" data-name="Path 458" d="M.677.894l.343.249-.131.4L1.232,1.3l.343.249-.131-.4L1.787.894H1.363l-.131-.4L1.1.894Zm2.387,0,.343.249-.131.4L3.619,1.3l.343.249-.131-.4L4.174.894H3.75l-.131-.4-.131.4Zm2.387,0,.343.249-.131.4L6.006,1.3l.343.249-.131-.4L6.561.894H6.137l-.131-.4-.131.4Zm2.387,0,.343.249-.131.4L8.393,1.3l.343.249-.131-.4L8.948.894H8.524l-.131-.4-.131.4Zm2.387,0,.343.249-.131.4L10.78,1.3l.343.249-.131-.4.343-.249h-.424l-.131-.4-.131.4Zm2.387,0,.343.249-.131.4.343-.249.343.249-.131-.4.343-.249H13.3l-.131-.4-.131.4ZM1.869,1.917l.343.249-.131.4.343-.249.343.249-.131-.4.343-.249H2.555l-.131-.4-.131.4Zm2.387,0,.343.249-.131.4.343-.249.343.249-.131-.4.343-.249H4.942l-.131-.4-.131.4Zm2.387,0,.343.249-.131.4L7.2,2.321l.343.249-.131-.4.343-.249H7.331l-.131-.4-.131.4Zm2.387,0,.343.249-.131.4.343-.249.343.249-.131-.4.343-.249H9.716l-.131-.4-.131.4Zm2.387,0,.343.249-.131.4.343-.249.343.249-.131-.4.343-.249H12.1l-.131-.4-.131.4ZM.677,2.941l.343.249-.131.4.343-.249.343.249-.131-.4.343-.249H1.363l-.131-.4-.131.4Zm2.387,0,.343.249-.131.4.343-.249.343.249-.131-.4.343-.249H3.75l-.131-.4-.131.4Zm2.387,0,.343.249-.131.4.343-.249.343.249-.131-.4.343-.249H6.137l-.131-.4-.131.4Zm2.387,0,.343.249-.131.4.343-.249.343.249-.131-.4.343-.249H8.524l-.131-.4-.131.4Zm2.387,0,.343.249-.131.4.343-.249.343.249-.131-.4.343-.249h-.424l-.131-.4-.131.4Zm2.387,0,.343.249-.131.4.343-.249.343.249-.131-.4.343-.249H13.3l-.131-.4-.131.4ZM1.9,3.968l.343.249-.131.4.343-.249L2.8,4.62l-.131-.4.343-.249H2.584l-.131-.4-.131.4Zm2.387,0,.343.249-.131.4.343-.249.343.249-.131-.4L5.4,3.968H4.971l-.131-.4-.131.4Zm2.387,0,.343.249-.131.4.343-.249.343.249-.131-.4.343-.249H7.358l-.131-.4-.131.4Zm2.387,0,.343.249-.131.4.343-.249.343.249-.131-.4.343-.249H9.745l-.131-.4-.131.4Zm2.387,0,.343.249-.131.4L12,4.371l.343.249-.131-.4.343-.249h-.424L12,3.565l-.131.4ZM.713,4.982l.343.249-.131.4.343-.249.343.249-.131-.4.343-.249H1.4l-.131-.4-.131.4Zm2.387,0,.343.249-.131.4.343-.249L4,5.634l-.131-.4.343-.249H3.786l-.131-.4-.131.4Zm2.387,0,.343.249-.131.4.343-.249.343.249-.131-.4L6.6,4.982H6.173l-.131-.4-.131.4Zm2.387,0,.343.249-.131.4.343-.249.343.249-.131-.4.343-.249H8.56l-.131-.4-.131.4Zm2.387,0,.343.249-.131.4.343-.249.343.249-.131-.4.343-.249h-.424l-.131-.4-.131.4Zm2.387,0,.343.249-.131.4.343-.249.343.249-.131-.4.343-.249h-.424l-.131-.4-.131.4ZM.735,7l.343.249-.131.4L1.29,7.4l.343.249-.131-.4L1.845,7H1.421l-.131-.4L1.159,7ZM3.122,7l.343.249-.131.4L3.677,7.4l.343.249-.131-.4L4.232,7H3.808l-.131-.4L3.546,7ZM5.509,7l.343.249-.131.4L6.064,7.4l.343.249-.131-.4L6.619,7H6.2l-.131-.4L5.933,7ZM7.9,7l.343.249-.131.4L8.451,7.4l.343.249-.131-.4L9.006,7H8.582l-.131-.4L8.32,7Zm2.387,0,.343.249-.131.4.343-.249.343.249-.131-.4L11.393,7h-.424l-.131-.4-.131.4ZM12.67,7l.343.249-.131.4.343-.249.343.249-.131-.4L13.78,7h-.424l-.131-.4-.131.4ZM.706,9.033l.343.249-.131.4.343-.249.343.249-.131-.4.343-.249H1.392l-.131-.4-.131.4Zm2.387,0,.343.249-.131.4.343-.249.343.249-.131-.4L4.2,9.033H3.779l-.131-.4-.131.4Zm2.387,0,.343.249-.131.4.343-.249.343.249-.131-.4.343-.249H6.167l-.131-.4-.131.4Zm2.387,0,.343.249-.131.4.343-.249.343.249-.131-.4.343-.249H8.553l-.131-.4-.131.4Zm2.387,0,.343.249-.131.4.343-.249.343.249-.131-.4.343-.249H10.94l-.131-.4-.131.4Zm2.387,0,.343.249-.131.4.343-.249.343.249-.131-.4.343-.249h-.424l-.131-.4-.131.4ZM1.907,5.979l.343.249-.131.4.343-.249.343.249-.131-.4.343-.249H2.593l-.131-.4-.131.4Zm2.387,0,.343.249-.131.4.343-.249.343.249-.131-.4L5.4,5.979H4.98l-.131-.4-.131.4Zm2.387,0,.343.249-.131.4.343-.249.343.249-.131-.4.343-.249H7.367l-.131-.4-.131.4Zm2.387,0,.343.249-.131.4.343-.249.343.249-.131-.4.343-.249H9.754l-.131-.4-.131.4Zm2.387,0,.343.249-.131.4.343-.249.343.249-.131-.4.343-.249h-.424l-.131-.4-.131.4ZM1.9,8.013l.343.249-.131.4.343-.249.343.249-.131-.4.343-.249H2.586l-.131-.4-.131.4Zm2.387,0,.343.249-.131.4.343-.249.343.249-.131-.4L5.4,8.013H4.973l-.131-.4-.131.4Zm2.387,0,.343.249-.131.4.343-.249.343.249-.131-.4.343-.249H7.36l-.131-.4-.131.4Zm2.387,0,.343.249-.131.4.343-.249.343.249-.131-.4.343-.249H9.747l-.131-.4-.131.4Zm2.387,0,.343.249-.131.4L12,8.416l.343.249-.131-.4.343-.249h-.424L12,7.61l-.131.4Z" transform="translate(0 -0.066)" fill="#fff"/>
</svg>