<svg xmlns="http://www.w3.org/2000/svg" width="24" height="21.517" viewBox="0 0 24 21.517">
  <g id="ico.masterlist" transform="translate(-535 -540)">
    <path id="Path_441" data-name="Path 441" d="M557.676,540H536.324A1.324,1.324,0,0,0,535,541.324v18.869a1.324,1.324,0,0,0,1.324,1.324h21.352A1.324,1.324,0,0,0,559,560.193V541.324A1.324,1.324,0,0,0,557.676,540Zm-21.021,1.655h6.621v18.207h-6.621Zm20.69,18.207H545.759V541.655h11.586Z" fill="#5d5d5d"/>
    <rect id="Rectangle_996" data-name="Rectangle 996" width="3.282" height="2.461" transform="translate(538.282 543.314)" fill="#5d5d5d"/>
    <rect id="Rectangle_997" data-name="Rectangle 997" width="3.282" height="2.461" transform="translate(538.282 547.457)" fill="#5d5d5d"/>
    <rect id="Rectangle_998" data-name="Rectangle 998" width="3.282" height="2.461" transform="translate(538.282 551.599)" fill="#5d5d5d"/>
    <rect id="Rectangle_999" data-name="Rectangle 999" width="3.282" height="2.461" transform="translate(538.282 555.742)" fill="#5d5d5d"/>
    <rect id="Rectangle_1000" data-name="Rectangle 1000" width="8.204" height="1.641" transform="translate(547.514 543.313)" fill="#5d5d5d"/>
    <rect id="Rectangle_1001" data-name="Rectangle 1001" width="8.204" height="1.641" transform="translate(547.514 546.625)" fill="#5d5d5d"/>
    <rect id="Rectangle_1002" data-name="Rectangle 1002" width="8.204" height="1.641" transform="translate(547.514 549.938)" fill="#5d5d5d"/>
    <rect id="Rectangle_1003" data-name="Rectangle 1003" width="6.563" height="1.641" transform="translate(547.455 553.251)" fill="#5d5d5d"/>
  </g>
</svg>
