<svg id="ico.table.sort.up" xmlns="http://www.w3.org/2000/svg" width="16" height="22" viewBox="0 0 16 22">
  <path id="Union_63" data-name="Union 63" d="M7.23,21.663.319,14.314a1.169,1.169,0,0,1-.235-1.24,1.059,1.059,0,0,1,.994-.707H14.907a1.058,1.058,0,0,1,.991.7,1.175,1.175,0,0,1-.231,1.243L8.756,21.663a1.032,1.032,0,0,1-1.525,0Zm.781-1.853,5-5.316H3ZM1.093,9.631A1.15,1.15,0,0,1,.335,7.684L7.249.335a1.032,1.032,0,0,1,1.522,0l6.911,7.349a1.149,1.149,0,0,1-.757,1.947Z" transform="translate(0)" fill="#5d5d5d"/>
</svg>
