<svg id="ico.panel.close" xmlns="http://www.w3.org/2000/svg" width="24.001" height="23.999" viewBox="0 0 24.001 23.999">
<path id="ico.panel.close-2" data-name="ico.panel.close" d="M11596-3508a4,4,0,0,1-4-4v-16a4,4,0,0,1,4-4h16a4,4,0,0,1,4,4v16a4.007,4.007,0,0,1-4,4Zm-2-20v16a2,2,0,0,0,2,2h16a2,2,0,0,0,2-2v-16a2,2,0,0,0-2-2h-16A2,2,0,0,0,11594-3528Zm14.244,13.911-4.242-4.245-4.244,4.245a1,1,0,0,1-1.414,0,1,1,0,0,1,0-1.414l4.244-4.245-4.244-4.242a1,1,0,0,1,0-1.414,1,1,0,0,1,1.414,0l4.244,4.245,4.242-4.245a1,1,0,0,1,1.414,0,1,1,0,0,1,0,1.414l-4.242,4.242,4.242,4.245a1,1,0,0,1,0,1.414,1.009,1.009,0,0,1-.706.292A1.008,1.008,0,0,1,11608.244-3514.089Z" transform="translate(-11592 3532)" fill="#707070"/>
</svg>