<svg xmlns="http://www.w3.org/2000/svg" width="24" height="24" viewBox="0 0 24 24">
  <path id="ico.statisticalanalysis" d="M20.727,0H3.273A3.214,3.214,0,0,0,0,3.273V20.727A3.214,3.214,0,0,0,3.273,24H20.727A3.214,3.214,0,0,0,24,20.727V3.273A3.214,3.214,0,0,0,20.727,0ZM3.273,2.182H20.727a1.031,1.031,0,0,1,1.091,1.091v.655L19.636,6.109,17.455,3.927,9.818,11.564,6.545,8.291,2.182,12.655V3.273A1.031,1.031,0,0,1,3.273,2.182ZM17.455,21.818H15.273V9.164l2.182-2.182ZM8.727,13.527v8.291H6.545V11.345Zm2.182,0,2.182-2.182V21.818H10.909Zm-8.727,7.2V15.709l2.182-2.182v8.291H3.273A1.031,1.031,0,0,1,2.182,20.727Zm18.545,1.091H19.636V9.164l2.182-2.182V20.727A1.031,1.031,0,0,1,20.727,21.818Z" fill="#5d5d5d"/>
</svg>
