<svg xmlns="http://www.w3.org/2000/svg" width="24" height="24" viewBox="0 0 24 24">
  <g id="ico.register" transform="translate(-451.375 -510.125)">
    <path id="Path_430" data-name="Path 430" d="M478.64,518.587l-1.862-1.705a2.685,2.685,0,0,0-3.561.015l-11.359,10.4-.441,3.573a1.481,1.481,0,0,0,0,.359,1.738,1.738,0,0,0,1.963,1.437l3.9-.4,11.358-10.4v0A2.179,2.179,0,0,0,478.64,518.587ZM466.327,530.45l-2.818.3.322-2.581,8.039-7.363,2.5,2.289Zm10.852-9.928-1.337,1.224-2.5-2.29,1.34-1.221a.48.48,0,0,1,.637,0l1.856,1.7h0A.4.4,0,0,1,477.179,520.523Z" transform="translate(-4.001 -1.875)" fill="#5d5d5d"/>
    <path id="Path_431" data-name="Path 431" d="M468.582,532.525H453.014v-20.8h15.568v1.6h1.639V511.4a1.3,1.3,0,0,0-1.311-1.28H452.686a1.3,1.3,0,0,0-1.311,1.28v21.44a1.3,1.3,0,0,0,1.311,1.28H468.91a1.3,1.3,0,0,0,1.311-1.28v-4.32h-1.639Z" fill="#5d5d5d"/>
    <path id="Path_432" data-name="Path 432" d="M469.226,515.755a.847.847,0,0,0-.859-.83H457.2a.831.831,0,1,0,0,1.661h11.168A.847.847,0,0,0,469.226,515.755Z" transform="translate(-1.529 -1.478)" fill="#5d5d5d"/>
    <path id="Path_433" data-name="Path 433" d="M466.649,520.643v-.176a.758.758,0,0,0-.768-.743h-8.772a.758.758,0,0,0-.768.743v.176a.758.758,0,0,0,.768.743h8.772A.758.758,0,0,0,466.649,520.643Z" transform="translate(-1.529 -3.217)" fill="#5d5d5d"/>
    <path id="Path_434" data-name="Path 434" d="M456.968,524.525a.618.618,0,0,0-.627.606v.448a.618.618,0,0,0,.627.606h5.618a.619.619,0,0,0,.628-.606v-.448a.619.619,0,0,0-.628-.606Z" transform="translate(-1.529 -4.826)" fill="#5d5d5d"/>
  </g>
</svg>
