<svg id="ico.panel.options" xmlns="http://www.w3.org/2000/svg" width="24.001" height="23.999" viewBox="0 0 24.001 23.999">
<path id="ico.panel.options-2" data-name="ico.panel.options" d="M11596-3508a4,4,0,0,1-4-4v-16a4,4,0,0,1,4-4h16a4,4,0,0,1,4,4v16a4.007,4.007,0,0,1-4,4Zm-2-20v16a2,2,0,0,0,2,2h16a2,2,0,0,0,2-2v-16a2,2,0,0,0-2-2h-16A2,2,0,0,0,11594-3528Zm9.291,12.381-5.655-5.516a.953.953,0,0,1,0-1.379,1.015,1.015,0,0,1,1.413,0l4.947,4.828,4.953-4.828a1.016,1.016,0,0,1,1.414,0,.958.958,0,0,1,0,1.379l-5.658,5.516a1.015,1.015,0,0,1-.706.286A1.017,1.017,0,0,1,11603.291-3515.619Z" transform="translate(-11592 3532)" fill="#666"/>
</svg>