<svg id="ico.panel.options" xmlns="http://www.w3.org/2000/svg" width="24" height="23.999" viewBox="0 0 24 23.999">  <path id="ico.panel.options-2" data-name="ico.panel.options" d="M11596-3508a4.009,4.009,0,0,1-4-4v-16a4,4,0,0,1,4-3.994H11612a4,4,0,0,1,4,3.994v16a4.006,4.006,0,0,1-4,4Zm-2-20.005v16a2,2,0,0,0,2,2H11612a2.008,2.008,0,0,0,2.008-2v-16a2.008,2.008,0,0,0-2.008-2H11596A2,2,0,0,0,11594-3528Zm9.293,12.385-5.66-5.516a.952.952,0,0,1,0-1.379,1.032,1.032,0,0,1,1.418,0l4.941,4.827,4.961-4.827a1.018,1.018,0,0,1,1.406,0,.952.952,0,0,1,0,1.379l-5.66,5.516a1,1,0,0,1-.7.287A1.025,1.025,0,0,1,11603.293-3515.62Z" transform="translate(-11592 3531.998)" fill="#5d5d5d"/>
</svg>