
    <svg id="ico.nav.first" xmlns="http://www.w3.org/2000/svg" width="16" height="12" viewBox="0 0 24 20.004">
  <path id="Union_83" data-name="Union 83" d="M22.13,19.678,13.34,10.79a1.117,1.117,0,0,1,0-1.57L22.13.325a1.084,1.084,0,0,1,1.548,0,1.12,1.12,0,0,1,0,1.572L15.668,10l8.01,8.1a1.12,1.12,0,0,1,0,1.572,1.082,1.082,0,0,1-1.548,0Zm-13.018,0L.323,10.79a1.117,1.117,0,0,1,0-1.57L3.345,6.161,9.112.325a1.082,1.082,0,0,1,1.547,0,1.119,1.119,0,0,1,0,1.572L2.65,10l8.009,8.1a1.119,1.119,0,0,1,0,1.572,1.081,1.081,0,0,1-1.547,0Z" fill="#CACACA"/>
</svg>
