<svg id="ico.nav.last" xmlns="http://www.w3.org/2000/svg" width="16" height="12" viewBox="0 0 24 20.004">
  <g id="Group_665" data-name="Group 665" transform="translate(785.326 9960.504) rotate(180)">
    <path id="Union_83" data-name="Union 83" d="M22.133,19.678,13.361,10.79a1.119,1.119,0,0,1,0-1.57L22.133.325a1.081,1.081,0,0,1,1.546,0,1.124,1.124,0,0,1,0,1.572l-8,8.107,8,8.1a1.124,1.124,0,0,1,0,1.572,1.08,1.08,0,0,1-1.546,0Zm-13.039,0L.322,10.79a1.119,1.119,0,0,1,0-1.57L3.339,6.161,9.094.325a1.08,1.08,0,0,1,1.545,0,1.122,1.122,0,0,1,0,1.572L2.646,10l7.994,8.1a1.122,1.122,0,0,1,0,1.572,1.079,1.079,0,0,1-1.545,0Z" transform="translate(761.326 9940.5)" fill="#999C9E"/>
  </g>
</svg>