<svg id="ico-question.mark" xmlns="http://www.w3.org/2000/svg" width="24" height="24.001" viewBox="0 0 24 24.001">
  <path id="Subtraction_23" data-name="Subtraction 23" d="M13146-1661a11.922,11.922,0,0,1-8.485-3.515A11.921,11.921,0,0,1,13134-1673a11.922,11.922,0,0,1,3.515-8.486A11.922,11.922,0,0,1,13146-1685a12.014,12.014,0,0,1,12,12A12.013,12.013,0,0,1,13146-1661Zm0-6.628a2,2,0,0,0-2,2,2,2,0,0,0,2,2,2,2,0,0,0,2-2A2,2,0,0,0,13146-1667.626Zm.046-12.311h0a3.217,3.217,0,0,1,1.863.74,2.655,2.655,0,0,1,.951,2.186,2.772,2.772,0,0,1-1.281,2.345c-.534.36-.908.621-1.212.845a5.97,5.97,0,0,0-1.84,1.985,6.858,6.858,0,0,0-.647,3.21h4.029c0-.32-.021-.632-.039-.907a2.958,2.958,0,0,1,.25-1.923,2.635,2.635,0,0,1,.646-.631l.094-.072c.32-.256.651-.513.983-.763.353-.264.676-.513.987-.763a4.381,4.381,0,0,0,1.642-3.6,4.407,4.407,0,0,0-1.8-3.7,7.561,7.561,0,0,0-4.729-1.387,6.82,6.82,0,0,0-4.785,1.711,5.651,5.651,0,0,0-1.635,4.534h3.1a4.344,4.344,0,0,1,.825-2.774A3.121,3.121,0,0,1,13146.047-1679.937Z" transform="translate(-13134.001 1684.999)" fill="#5d5d5d"/>
</svg>
