<svg id="ico.search.settomgs" xmlns="http://www.w3.org/2000/svg" width="24" height="19.2" viewBox="0 0 24 19.2">
  <path id="settings-alt" d="M13.8,20.4V7.2a1.2,1.2,0,0,1,2.4,0V20.4h1.2a1.2,1.2,0,0,1,0,2.4H16.2V24a1.2,1.2,0,0,1-2.4,0V22.8H12.6a1.2,1.2,0,1,1,0-2.4Zm8.4-12V7.2a1.2,1.2,0,1,1,2.4,0V8.4h1.2a1.2,1.2,0,0,1,0,2.4H24.6V24a1.2,1.2,0,0,1-2.4,0V10.8H21a1.2,1.2,0,0,1,0-2.4ZM7.8,12H9a1.2,1.2,0,1,1,0,2.4H7.8V24a1.2,1.2,0,0,1-2.4,0V14.4H4.2a1.2,1.2,0,1,1,0-2.4H5.4V7.2a1.2,1.2,0,0,1,2.4,0Z" transform="translate(-3 -6)" fill="#666"/>
</svg>
