<svg id="ico.search" xmlns="http://www.w3.org/2000/svg" width="24.002" height="24" viewBox="0 0 24.002 24">
  <path id="Union_65" data-name="Union 65" d="M13158.433-1658.01l-4.8-4.8a10.254,10.254,0,0,1-13.107-1.166,10.252,10.252,0,0,1,0-14.5,10.251,10.251,0,0,1,14.5,0,10.254,10.254,0,0,1,1.168,13.1l4.8,4.8a1.807,1.807,0,0,1,0,2.558,1.8,1.8,0,0,1-1.279.532A1.8,1.8,0,0,1,13158.433-1658.01Zm-16.205-18.76a7.851,7.851,0,0,0,0,11.087,7.853,7.853,0,0,0,11.089,0,7.853,7.853,0,0,0,0-11.087,7.823,7.823,0,0,0-5.545-2.292A7.819,7.819,0,0,0,13142.228-1676.771Z" transform="translate(-13137.521 1681.479)" fill="#666"/>
</svg>

