<svg id="ico.table.sort" xmlns="http://www.w3.org/2000/svg" width="10.982" height="15.684" viewBox="0 0 15.982 20.684">
  <path id="Union_63" data-name="Union 63" d="M12477.222-2493.13l-6.9-6.91a1.05,1.05,0,0,1-.235-1.166,1.056,1.056,0,0,1,.993-.664h13.813a1.055,1.055,0,0,1,.99.661,1.055,1.055,0,0,1-.231,1.169l-6.9,6.91a1.07,1.07,0,0,1-.762.317A1.07,1.07,0,0,1,12477.222-2493.13Zm.78-1.742,5-5h-10Zm-6.91-9.57a1.072,1.072,0,0,1-.758-1.83l6.906-6.91a1.075,1.075,0,0,1,1.521,0l6.9,6.91a1.071,1.071,0,0,1-.756,1.83Z" transform="translate(-12469.999 2513.497)" fill="#666"/>
</svg>