<svg xmlns="http://www.w3.org/2000/svg" width="23.997" height="24.004" viewBox="0 0 23.997 24.004">
<g id="icon.item.menu.square" transform="translate(0 0)">
<path id="Union_64" data-name="Union 64" d="M13138-1660.995a4.005,4.005,0,0,1-4-4V-1681a4.005,4.005,0,0,1,4-4h16a4.007,4.007,0,0,1,4,4v16.006a4.007,4.007,0,0,1-4,4Zm-2-20v16.006a2,2,0,0,0,2,1.995h16a2,2,0,0,0,1.994-1.995V-1681a2,2,0,0,0-1.994-1.995h-16A2,2,0,0,0,13136-1681Zm14,8a2,2,0,0,1,2-2,2,2,0,0,1,2,2,2,2,0,0,1-2,2A2,2,0,0,1,13150-1673Zm-6,0a2,2,0,0,1,2-2,2,2,0,0,1,2,2,2,2,0,0,1-2,2A2,2,0,0,1,13144-1673Zm-6,0a2,2,0,0,1,2-2,2,2,0,0,1,2,2,2,2,0,0,1-2,2A2,2,0,0,1,13138-1673Z" transform="translate(-13133.999 1684.999)" fill="#707070"/>
</g>
</svg>