<?xml version="1.0" encoding="UTF-8" standalone="no"?>
<!DOCTYPE svg PUBLIC "-//W3C//DTD SVG 1.1//EN"
 "http://www.w3.org/Graphics/SVG/1.1/DTD/svg11.dtd">
<!-- Generated by graphviz version 2.47.3 (20210619.1520)
 -->
<!-- Title: dependencies Pages: 1 -->
<svg width="865pt" height="247pt"
 viewBox="0.00 0.00 865.00 246.80" xmlns="http://www.w3.org/2000/svg" xmlns:xlink="http://www.w3.org/1999/xlink">
<g id="graph0" class="graph" transform="scale(1 1) rotate(0) translate(4 242.8)">
<title>dependencies</title>
<polygon fill="white" stroke="transparent" points="-4,4 -4,-242.8 861,-242.8 861,4 -4,4"/>
<text text-anchor="middle" x="428.5" y="-8.2" font-family="sans-serif" font-size="14.00">dependencies</text>
<g id="clust1" class="cluster">
<title>cluster_ReusableModule</title>
<polygon fill="none" stroke="black" stroke-dasharray="1,5" points="8,-32.8 8,-230.8 849,-230.8 849,-32.8 8,-32.8"/>
</g>
<g id="clust7" class="cluster">
<title>cluster_ReusableModule_imports</title>
<polygon fill="none" stroke="black" points="719,-40.8 719,-92.8 841,-92.8 841,-40.8 719,-40.8"/>
</g>
<g id="clust2" class="cluster">
<title>cluster_ReusableModule_declarations</title>
<polygon fill="none" stroke="black" points="16,-40.8 16,-92.8 711,-92.8 711,-40.8 16,-40.8"/>
</g>
<g id="clust8" class="cluster">
<title>cluster_ReusableModule_exports</title>
<polygon fill="none" stroke="black" points="74,-170.8 74,-222.8 783,-222.8 783,-170.8 74,-170.8"/>
</g>
<!-- NovaFooterComponent -->
<g id="node1" class="node">
<title>NovaFooterComponent</title>
<polygon fill="#ffffb3" stroke="black" points="703.2,-84.8 554.8,-84.8 554.8,-48.8 703.2,-48.8 703.2,-84.8"/>
<text text-anchor="middle" x="629" y="-62.6" font-family="Times,serif" font-size="14.00">NovaFooterComponent</text>
</g>
<!-- ReusableModule -->
<g id="node5" class="node">
<title>ReusableModule</title>
<polygon fill="#8dd3c7" stroke="black" points="501.37,-149.8 498.37,-153.8 477.37,-153.8 474.37,-149.8 390.63,-149.8 390.63,-113.8 501.37,-113.8 501.37,-149.8"/>
<text text-anchor="middle" x="446" y="-127.6" font-family="Times,serif" font-size="14.00">ReusableModule</text>
</g>
<!-- NovaFooterComponent&#45;&gt;ReusableModule -->
<g id="edge1" class="edge">
<title>NovaFooterComponent&#45;&gt;ReusableModule</title>
<path fill="none" stroke="black" d="M580.24,-84.83C580.24,-101.2 580.24,-122.8 580.24,-122.8 580.24,-122.8 511.37,-122.8 511.37,-122.8"/>
<polygon fill="black" stroke="black" points="511.37,-119.3 501.37,-122.8 511.37,-126.3 511.37,-119.3"/>
</g>
<!-- NovaLoginFooterComponent -->
<g id="node2" class="node">
<title>NovaLoginFooterComponent</title>
<polygon fill="#ffffb3" stroke="black" points="536.65,-84.8 355.35,-84.8 355.35,-48.8 536.65,-48.8 536.65,-84.8"/>
<text text-anchor="middle" x="446" y="-62.6" font-family="Times,serif" font-size="14.00">NovaLoginFooterComponent</text>
</g>
<!-- NovaLoginFooterComponent&#45;&gt;ReusableModule -->
<g id="edge2" class="edge">
<title>NovaLoginFooterComponent&#45;&gt;ReusableModule</title>
<path fill="none" stroke="black" d="M446,-84.91C446,-84.91 446,-103.79 446,-103.79"/>
<polygon fill="black" stroke="black" points="442.5,-103.79 446,-113.79 449.5,-103.79 442.5,-103.79"/>
</g>
<!-- NovaSidenavComponent -->
<g id="node3" class="node">
<title>NovaSidenavComponent</title>
<polygon fill="#ffffb3" stroke="black" points="337.26,-84.8 180.74,-84.8 180.74,-48.8 337.26,-48.8 337.26,-84.8"/>
<text text-anchor="middle" x="259" y="-62.6" font-family="Times,serif" font-size="14.00">NovaSidenavComponent</text>
</g>
<!-- NovaSidenavComponent&#45;&gt;ReusableModule -->
<g id="edge3" class="edge">
<title>NovaSidenavComponent&#45;&gt;ReusableModule</title>
<path fill="none" stroke="black" d="M289.62,-84.83C289.62,-101.2 289.62,-122.8 289.62,-122.8 289.62,-122.8 380.43,-122.8 380.43,-122.8"/>
<polygon fill="black" stroke="black" points="380.43,-126.3 390.43,-122.8 380.43,-119.3 380.43,-126.3"/>
</g>
<!-- NvHeaderComponent -->
<g id="node4" class="node">
<title>NvHeaderComponent</title>
<polygon fill="#ffffb3" stroke="black" points="162.35,-84.8 23.65,-84.8 23.65,-48.8 162.35,-48.8 162.35,-84.8"/>
<text text-anchor="middle" x="93" y="-62.6" font-family="Times,serif" font-size="14.00">NvHeaderComponent</text>
</g>
<!-- NvHeaderComponent&#45;&gt;ReusableModule -->
<g id="edge4" class="edge">
<title>NvHeaderComponent&#45;&gt;ReusableModule</title>
<path fill="none" stroke="black" d="M122.12,-84.91C122.12,-104.14 122.12,-131.8 122.12,-131.8 122.12,-131.8 380.32,-131.8 380.32,-131.8"/>
<polygon fill="black" stroke="black" points="380.32,-135.3 390.32,-131.8 380.32,-128.3 380.32,-135.3"/>
</g>
<!-- NovaFooterComponent  -->
<g id="node7" class="node">
<title>NovaFooterComponent </title>
<polygon fill="#fb8072" stroke="black" points="774.7,-214.8 623.3,-214.8 623.3,-178.8 774.7,-178.8 774.7,-214.8"/>
<text text-anchor="middle" x="699" y="-192.6" font-family="Times,serif" font-size="14.00">NovaFooterComponent </text>
</g>
<!-- ReusableModule&#45;&gt;NovaFooterComponent  -->
<g id="edge6" class="edge">
<title>ReusableModule&#45;&gt;NovaFooterComponent </title>
<path fill="none" stroke="black" stroke-dasharray="5,2" d="M501.63,-140.8C565.96,-140.8 663.12,-140.8 663.12,-140.8 663.12,-140.8 663.12,-168.77 663.12,-168.77"/>
<polygon fill="black" stroke="black" points="659.63,-168.77 663.12,-178.77 666.63,-168.77 659.63,-168.77"/>
</g>
<!-- NovaLoginFooterComponent  -->
<g id="node8" class="node">
<title>NovaLoginFooterComponent </title>
<polygon fill="#fb8072" stroke="black" points="605.65,-214.8 420.35,-214.8 420.35,-178.8 605.65,-178.8 605.65,-214.8"/>
<text text-anchor="middle" x="513" y="-192.6" font-family="Times,serif" font-size="14.00">NovaLoginFooterComponent </text>
</g>
<!-- ReusableModule&#45;&gt;NovaLoginFooterComponent  -->
<g id="edge7" class="edge">
<title>ReusableModule&#45;&gt;NovaLoginFooterComponent </title>
<path fill="none" stroke="black" stroke-dasharray="5,2" d="M460.93,-149.91C460.93,-149.91 460.93,-168.79 460.93,-168.79"/>
<polygon fill="black" stroke="black" points="457.43,-168.79 460.93,-178.79 464.43,-168.79 457.43,-168.79"/>
</g>
<!-- NovaSidenavComponent  -->
<g id="node9" class="node">
<title>NovaSidenavComponent </title>
<polygon fill="#fb8072" stroke="black" points="402.26,-214.8 241.74,-214.8 241.74,-178.8 402.26,-178.8 402.26,-214.8"/>
<text text-anchor="middle" x="322" y="-192.6" font-family="Times,serif" font-size="14.00">NovaSidenavComponent </text>
</g>
<!-- ReusableModule&#45;&gt;NovaSidenavComponent  -->
<g id="edge8" class="edge">
<title>ReusableModule&#45;&gt;NovaSidenavComponent </title>
<path fill="none" stroke="black" stroke-dasharray="5,2" d="M396.35,-149.91C396.35,-149.91 396.35,-168.79 396.35,-168.79"/>
<polygon fill="black" stroke="black" points="392.85,-168.79 396.35,-178.79 399.85,-168.79 392.85,-168.79"/>
</g>
<!-- NvHeaderComponent  -->
<g id="node10" class="node">
<title>NvHeaderComponent </title>
<polygon fill="#fb8072" stroke="black" points="224.35,-214.8 81.65,-214.8 81.65,-178.8 224.35,-178.8 224.35,-214.8"/>
<text text-anchor="middle" x="153" y="-192.6" font-family="Times,serif" font-size="14.00">NvHeaderComponent </text>
</g>
<!-- ReusableModule&#45;&gt;NvHeaderComponent  -->
<g id="edge9" class="edge">
<title>ReusableModule&#45;&gt;NvHeaderComponent </title>
<path fill="none" stroke="black" stroke-dasharray="5,2" d="M390.42,-140.8C318.52,-140.8 202.4,-140.8 202.4,-140.8 202.4,-140.8 202.4,-168.77 202.4,-168.77"/>
<polygon fill="black" stroke="black" points="198.9,-168.77 202.4,-178.77 205.9,-168.77 198.9,-168.77"/>
</g>
<!-- MaterialModule -->
<g id="node6" class="node">
<title>MaterialModule</title>
<polygon fill="#8dd3c7" stroke="black" points="833.47,-84.8 830.47,-88.8 809.47,-88.8 806.47,-84.8 726.53,-84.8 726.53,-48.8 833.47,-48.8 833.47,-84.8"/>
<text text-anchor="middle" x="780" y="-62.6" font-family="Times,serif" font-size="14.00">MaterialModule</text>
</g>
<!-- MaterialModule&#45;&gt;ReusableModule -->
<g id="edge5" class="edge">
<title>MaterialModule&#45;&gt;ReusableModule</title>
<path fill="none" stroke="black" d="M750.68,-84.91C750.68,-104.14 750.68,-131.8 750.68,-131.8 750.68,-131.8 511.53,-131.8 511.53,-131.8"/>
<polygon fill="black" stroke="black" points="511.53,-128.3 501.53,-131.8 511.53,-135.3 511.53,-128.3"/>
</g>
</g>
</svg>
