<?xml version="1.0" encoding="UTF-8" standalone="no"?>
<!DOCTYPE svg PUBLIC "-//W3C//DTD SVG 1.1//EN"
 "http://www.w3.org/Graphics/SVG/1.1/DTD/svg11.dtd">
<!-- Generated by graphviz version 2.47.3 (20210619.1520)
 -->
<!-- Title: dependencies Pages: 1 -->
<svg width="770pt" height="174pt"
 viewBox="0.00 0.00 770.00 173.80" xmlns="http://www.w3.org/2000/svg" xmlns:xlink="http://www.w3.org/1999/xlink">
<g id="graph0" class="graph" transform="scale(1 1) rotate(0) translate(4 169.8)">
<title>dependencies</title>
<polygon fill="white" stroke="transparent" points="-4,4 -4,-169.8 766,-169.8 766,4 -4,4"/>
<text text-anchor="middle" x="381" y="-8.2" font-family="sans-serif" font-size="14.00">dependencies</text>
<g id="clust1" class="cluster">
<title>cluster_MainModule</title>
<polygon fill="none" stroke="black" stroke-dasharray="1,5" points="8,-32.8 8,-157.8 754,-157.8 754,-32.8 8,-32.8"/>
</g>
<g id="clust2" class="cluster">
<title>cluster_MainModule_declarations</title>
<polygon fill="none" stroke="black" points="428,-40.8 428,-92.8 746,-92.8 746,-40.8 428,-40.8"/>
</g>
<g id="clust5" class="cluster">
<title>cluster_MainModule_imports</title>
<polygon fill="none" stroke="black" points="16,-40.8 16,-92.8 420,-92.8 420,-40.8 16,-40.8"/>
</g>
<!-- DashboardComponent -->
<g id="node1" class="node">
<title>DashboardComponent</title>
<polygon fill="#ffffb3" stroke="black" points="737.97,-84.8 596.03,-84.8 596.03,-48.8 737.97,-48.8 737.97,-84.8"/>
<text text-anchor="middle" x="667" y="-62.6" font-family="Times,serif" font-size="14.00">DashboardComponent</text>
</g>
<!-- MainModule -->
<g id="node3" class="node">
<title>MainModule</title>
<polygon fill="#8dd3c7" stroke="black" points="389.6,-149.8 386.6,-153.8 365.6,-153.8 362.6,-149.8 300.4,-149.8 300.4,-113.8 389.6,-113.8 389.6,-149.8"/>
<text text-anchor="middle" x="345" y="-127.6" font-family="Times,serif" font-size="14.00">MainModule</text>
</g>
<!-- DashboardComponent&#45;&gt;MainModule -->
<g id="edge1" class="edge">
<title>DashboardComponent&#45;&gt;MainModule</title>
<path fill="none" stroke="black" d="M667,-85.08C667,-106.12 667,-137.8 667,-137.8 667,-137.8 399.77,-137.8 399.77,-137.8"/>
<polygon fill="black" stroke="black" points="399.77,-134.3 389.77,-137.8 399.77,-141.3 399.77,-134.3"/>
</g>
<!-- DemoPageComponent -->
<g id="node2" class="node">
<title>DemoPageComponent</title>
<polygon fill="#ffffb3" stroke="black" points="578.26,-84.8 435.74,-84.8 435.74,-48.8 578.26,-48.8 578.26,-84.8"/>
<text text-anchor="middle" x="507" y="-62.6" font-family="Times,serif" font-size="14.00">DemoPageComponent</text>
</g>
<!-- DemoPageComponent&#45;&gt;MainModule -->
<g id="edge2" class="edge">
<title>DemoPageComponent&#45;&gt;MainModule</title>
<path fill="none" stroke="black" d="M507,-84.82C507,-102.17 507,-125.8 507,-125.8 507,-125.8 399.7,-125.8 399.7,-125.8"/>
<polygon fill="black" stroke="black" points="399.7,-122.3 389.7,-125.8 399.7,-129.3 399.7,-122.3"/>
</g>
<!-- MainRoutingModule -->
<g id="node4" class="node">
<title>MainRoutingModule</title>
<polygon fill="#8dd3c7" stroke="black" points="412.22,-84.8 409.22,-88.8 388.22,-88.8 385.22,-84.8 277.78,-84.8 277.78,-48.8 412.22,-48.8 412.22,-84.8"/>
<text text-anchor="middle" x="345" y="-62.6" font-family="Times,serif" font-size="14.00">MainRoutingModule</text>
</g>
<!-- MainRoutingModule&#45;&gt;MainModule -->
<g id="edge3" class="edge">
<title>MainRoutingModule&#45;&gt;MainModule</title>
<path fill="none" stroke="black" d="M345,-84.91C345,-84.91 345,-103.79 345,-103.79"/>
<polygon fill="black" stroke="black" points="341.5,-103.79 345,-113.79 348.5,-103.79 341.5,-103.79"/>
</g>
<!-- MaterialModule -->
<g id="node5" class="node">
<title>MaterialModule</title>
<polygon fill="#8dd3c7" stroke="black" points="259.47,-84.8 256.47,-88.8 235.47,-88.8 232.47,-84.8 152.53,-84.8 152.53,-48.8 259.47,-48.8 259.47,-84.8"/>
<text text-anchor="middle" x="206" y="-62.6" font-family="Times,serif" font-size="14.00">MaterialModule</text>
</g>
<!-- MaterialModule&#45;&gt;MainModule -->
<g id="edge4" class="edge">
<title>MaterialModule&#45;&gt;MainModule</title>
<path fill="none" stroke="black" d="M206,-84.82C206,-102.17 206,-125.8 206,-125.8 206,-125.8 290.25,-125.8 290.25,-125.8"/>
<polygon fill="black" stroke="black" points="290.25,-129.3 300.25,-125.8 290.25,-122.3 290.25,-129.3"/>
</g>
<!-- ReusableModule -->
<g id="node6" class="node">
<title>ReusableModule</title>
<polygon fill="#8dd3c7" stroke="black" points="134.37,-84.8 131.37,-88.8 110.37,-88.8 107.37,-84.8 23.63,-84.8 23.63,-48.8 134.37,-48.8 134.37,-84.8"/>
<text text-anchor="middle" x="79" y="-62.6" font-family="Times,serif" font-size="14.00">ReusableModule</text>
</g>
<!-- ReusableModule&#45;&gt;MainModule -->
<g id="edge5" class="edge">
<title>ReusableModule&#45;&gt;MainModule</title>
<path fill="none" stroke="black" d="M79,-85.08C79,-106.12 79,-137.8 79,-137.8 79,-137.8 290.18,-137.8 290.18,-137.8"/>
<polygon fill="black" stroke="black" points="290.18,-141.3 300.18,-137.8 290.18,-134.3 290.18,-141.3"/>
</g>
</g>
</svg>
