<?xml version="1.0" encoding="UTF-8" standalone="no"?>
<!DOCTYPE svg PUBLIC "-//W3C//DTD SVG 1.1//EN"
 "http://www.w3.org/Graphics/SVG/1.1/DTD/svg11.dtd">
<!-- Generated by graphviz version 2.47.3 (20210619.1520)
 -->
<!-- Title: dependencies Pages: 1 -->
<svg width="994pt" height="247pt"
 viewBox="0.00 0.00 994.00 246.80" xmlns="http://www.w3.org/2000/svg" xmlns:xlink="http://www.w3.org/1999/xlink">
<g id="graph0" class="graph" transform="scale(1 1) rotate(0) translate(4 242.8)">
<title>dependencies</title>
<polygon fill="white" stroke="transparent" points="-4,4 -4,-242.8 990,-242.8 990,4 -4,4"/>
<text text-anchor="middle" x="493" y="-8.2" font-family="sans-serif" font-size="14.00">dependencies</text>
<g id="clust1" class="cluster">
<title>cluster_LayoutComponentModule</title>
<polygon fill="none" stroke="black" stroke-dasharray="1,5" points="8,-32.8 8,-230.8 978,-230.8 978,-32.8 8,-32.8"/>
</g>
<g id="clust7" class="cluster">
<title>cluster_LayoutComponentModule_imports</title>
<polygon fill="none" stroke="black" points="719,-40.8 719,-92.8 970,-92.8 970,-40.8 719,-40.8"/>
</g>
<g id="clust8" class="cluster">
<title>cluster_LayoutComponentModule_exports</title>
<polygon fill="none" stroke="black" points="134,-170.8 134,-222.8 843,-222.8 843,-170.8 134,-170.8"/>
</g>
<g id="clust2" class="cluster">
<title>cluster_LayoutComponentModule_declarations</title>
<polygon fill="none" stroke="black" points="16,-40.8 16,-92.8 711,-92.8 711,-40.8 16,-40.8"/>
</g>
<!-- NovaFooterComponent -->
<g id="node1" class="node">
<title>NovaFooterComponent</title>
<polygon fill="#ffffb3" stroke="black" points="703.2,-84.8 554.8,-84.8 554.8,-48.8 703.2,-48.8 703.2,-84.8"/>
<text text-anchor="middle" x="629" y="-62.6" font-family="Times,serif" font-size="14.00">NovaFooterComponent</text>
</g>
<!-- LayoutComponentModule -->
<g id="node5" class="node">
<title>LayoutComponentModule</title>
<polygon fill="#8dd3c7" stroke="black" points="559.04,-149.8 556.04,-153.8 535.04,-153.8 532.04,-149.8 394.96,-149.8 394.96,-113.8 559.04,-113.8 559.04,-149.8"/>
<text text-anchor="middle" x="477" y="-127.6" font-family="Times,serif" font-size="14.00">LayoutComponentModule</text>
</g>
<!-- NovaFooterComponent&#45;&gt;LayoutComponentModule -->
<g id="edge1" class="edge">
<title>NovaFooterComponent&#45;&gt;LayoutComponentModule</title>
<path fill="none" stroke="black" d="M554.76,-66.8C549.29,-66.8 545.86,-66.8 545.86,-66.8 545.86,-66.8 545.86,-103.69 545.86,-103.69"/>
<polygon fill="black" stroke="black" points="542.36,-103.69 545.86,-113.69 549.36,-103.69 542.36,-103.69"/>
</g>
<!-- NovaLoginFooterComponent -->
<g id="node2" class="node">
<title>NovaLoginFooterComponent</title>
<polygon fill="#ffffb3" stroke="black" points="536.65,-84.8 355.35,-84.8 355.35,-48.8 536.65,-48.8 536.65,-84.8"/>
<text text-anchor="middle" x="446" y="-62.6" font-family="Times,serif" font-size="14.00">NovaLoginFooterComponent</text>
</g>
<!-- NovaLoginFooterComponent&#45;&gt;LayoutComponentModule -->
<g id="edge2" class="edge">
<title>NovaLoginFooterComponent&#45;&gt;LayoutComponentModule</title>
<path fill="none" stroke="black" d="M465.78,-84.91C465.78,-84.91 465.78,-103.79 465.78,-103.79"/>
<polygon fill="black" stroke="black" points="462.28,-103.79 465.78,-113.79 469.28,-103.79 462.28,-103.79"/>
</g>
<!-- NovaSidenavComponent -->
<g id="node3" class="node">
<title>NovaSidenavComponent</title>
<polygon fill="#ffffb3" stroke="black" points="337.26,-84.8 180.74,-84.8 180.74,-48.8 337.26,-48.8 337.26,-84.8"/>
<text text-anchor="middle" x="259" y="-62.6" font-family="Times,serif" font-size="14.00">NovaSidenavComponent</text>
</g>
<!-- NovaSidenavComponent&#45;&gt;LayoutComponentModule -->
<g id="edge3" class="edge">
<title>NovaSidenavComponent&#45;&gt;LayoutComponentModule</title>
<path fill="none" stroke="black" d="M319.62,-84.83C319.62,-101.2 319.62,-122.8 319.62,-122.8 319.62,-122.8 384.63,-122.8 384.63,-122.8"/>
<polygon fill="black" stroke="black" points="384.63,-126.3 394.63,-122.8 384.63,-119.3 384.63,-126.3"/>
</g>
<!-- NvHeaderComponent -->
<g id="node4" class="node">
<title>NvHeaderComponent</title>
<polygon fill="#ffffb3" stroke="black" points="162.35,-84.8 23.65,-84.8 23.65,-48.8 162.35,-48.8 162.35,-84.8"/>
<text text-anchor="middle" x="93" y="-62.6" font-family="Times,serif" font-size="14.00">NvHeaderComponent</text>
</g>
<!-- NvHeaderComponent&#45;&gt;LayoutComponentModule -->
<g id="edge4" class="edge">
<title>NvHeaderComponent&#45;&gt;LayoutComponentModule</title>
<path fill="none" stroke="black" d="M152.12,-84.91C152.12,-104.14 152.12,-131.8 152.12,-131.8 152.12,-131.8 384.6,-131.8 384.6,-131.8"/>
<polygon fill="black" stroke="black" points="384.6,-135.3 394.6,-131.8 384.6,-128.3 384.6,-135.3"/>
</g>
<!-- NovaFooterComponent  -->
<g id="node8" class="node">
<title>NovaFooterComponent </title>
<polygon fill="#fb8072" stroke="black" points="834.7,-214.8 683.3,-214.8 683.3,-178.8 834.7,-178.8 834.7,-214.8"/>
<text text-anchor="middle" x="759" y="-192.6" font-family="Times,serif" font-size="14.00">NovaFooterComponent </text>
</g>
<!-- LayoutComponentModule&#45;&gt;NovaFooterComponent  -->
<g id="edge7" class="edge">
<title>LayoutComponentModule&#45;&gt;NovaFooterComponent </title>
<path fill="none" stroke="black" stroke-dasharray="5,2" d="M559.32,-140.8C620.4,-140.8 693.12,-140.8 693.12,-140.8 693.12,-140.8 693.12,-168.77 693.12,-168.77"/>
<polygon fill="black" stroke="black" points="689.63,-168.77 693.12,-178.77 696.63,-168.77 689.63,-168.77"/>
</g>
<!-- NovaLoginFooterComponent  -->
<g id="node9" class="node">
<title>NovaLoginFooterComponent </title>
<polygon fill="#fb8072" stroke="black" points="665.65,-214.8 480.35,-214.8 480.35,-178.8 665.65,-178.8 665.65,-214.8"/>
<text text-anchor="middle" x="573" y="-192.6" font-family="Times,serif" font-size="14.00">NovaLoginFooterComponent </text>
</g>
<!-- LayoutComponentModule&#45;&gt;NovaLoginFooterComponent  -->
<g id="edge8" class="edge">
<title>LayoutComponentModule&#45;&gt;NovaLoginFooterComponent </title>
<path fill="none" stroke="black" stroke-dasharray="5,2" d="M519.85,-149.91C519.85,-149.91 519.85,-168.79 519.85,-168.79"/>
<polygon fill="black" stroke="black" points="516.35,-168.79 519.85,-178.79 523.35,-168.79 516.35,-168.79"/>
</g>
<!-- NovaSidenavComponent  -->
<g id="node10" class="node">
<title>NovaSidenavComponent </title>
<polygon fill="#fb8072" stroke="black" points="462.26,-214.8 301.74,-214.8 301.74,-178.8 462.26,-178.8 462.26,-214.8"/>
<text text-anchor="middle" x="382" y="-192.6" font-family="Times,serif" font-size="14.00">NovaSidenavComponent </text>
</g>
<!-- LayoutComponentModule&#45;&gt;NovaSidenavComponent  -->
<g id="edge9" class="edge">
<title>LayoutComponentModule&#45;&gt;NovaSidenavComponent </title>
<path fill="none" stroke="black" stroke-dasharray="5,2" d="M428.43,-149.91C428.43,-149.91 428.43,-168.79 428.43,-168.79"/>
<polygon fill="black" stroke="black" points="424.93,-168.79 428.43,-178.79 431.93,-168.79 424.93,-168.79"/>
</g>
<!-- NvHeaderComponent  -->
<g id="node11" class="node">
<title>NvHeaderComponent </title>
<polygon fill="#fb8072" stroke="black" points="284.35,-214.8 141.65,-214.8 141.65,-178.8 284.35,-178.8 284.35,-214.8"/>
<text text-anchor="middle" x="213" y="-192.6" font-family="Times,serif" font-size="14.00">NvHeaderComponent </text>
</g>
<!-- LayoutComponentModule&#45;&gt;NvHeaderComponent  -->
<g id="edge10" class="edge">
<title>LayoutComponentModule&#45;&gt;NvHeaderComponent </title>
<path fill="none" stroke="black" stroke-dasharray="5,2" d="M394.87,-140.8C323.81,-140.8 232.4,-140.8 232.4,-140.8 232.4,-140.8 232.4,-168.77 232.4,-168.77"/>
<polygon fill="black" stroke="black" points="228.9,-168.77 232.4,-178.77 235.9,-168.77 228.9,-168.77"/>
</g>
<!-- MaterialModule -->
<g id="node6" class="node">
<title>MaterialModule</title>
<polygon fill="#8dd3c7" stroke="black" points="962.47,-84.8 959.47,-88.8 938.47,-88.8 935.47,-84.8 855.53,-84.8 855.53,-48.8 962.47,-48.8 962.47,-84.8"/>
<text text-anchor="middle" x="909" y="-62.6" font-family="Times,serif" font-size="14.00">MaterialModule</text>
</g>
<!-- MaterialModule&#45;&gt;LayoutComponentModule -->
<g id="edge5" class="edge">
<title>MaterialModule&#45;&gt;LayoutComponentModule</title>
<path fill="none" stroke="black" d="M909,-84.91C909,-104.14 909,-131.8 909,-131.8 909,-131.8 569.27,-131.8 569.27,-131.8"/>
<polygon fill="black" stroke="black" points="569.27,-128.3 559.27,-131.8 569.27,-135.3 569.27,-128.3"/>
</g>
<!-- ReusableModule -->
<g id="node7" class="node">
<title>ReusableModule</title>
<polygon fill="#8dd3c7" stroke="black" points="837.37,-84.8 834.37,-88.8 813.37,-88.8 810.37,-84.8 726.63,-84.8 726.63,-48.8 837.37,-48.8 837.37,-84.8"/>
<text text-anchor="middle" x="782" y="-62.6" font-family="Times,serif" font-size="14.00">ReusableModule</text>
</g>
<!-- ReusableModule&#45;&gt;LayoutComponentModule -->
<g id="edge6" class="edge">
<title>ReusableModule&#45;&gt;LayoutComponentModule</title>
<path fill="none" stroke="black" d="M780.71,-84.83C780.71,-101.2 780.71,-122.8 780.71,-122.8 780.71,-122.8 569.19,-122.8 569.19,-122.8"/>
<polygon fill="black" stroke="black" points="569.19,-119.3 559.19,-122.8 569.19,-126.3 569.19,-119.3"/>
</g>
</g>
</svg>
