<?xml version="1.0" encoding="UTF-8" standalone="no"?>
<!DOCTYPE svg PUBLIC "-//W3C//DTD SVG 1.1//EN"
 "http://www.w3.org/Graphics/SVG/1.1/DTD/svg11.dtd">
<!-- Generated by graphviz version 2.47.3 (20210619.1520)
 -->
<!-- Title: dependencies Pages: 1 -->
<svg width="1976pt" height="326pt"
 viewBox="0.00 0.00 1976.00 325.80" xmlns="http://www.w3.org/2000/svg" xmlns:xlink="http://www.w3.org/1999/xlink">
<g id="graph0" class="graph" transform="scale(1 1) rotate(0) translate(4 321.8)">
<title>dependencies</title>
<polygon fill="white" stroke="transparent" points="-4,4 -4,-321.8 1972,-321.8 1972,4 -4,4"/>
<text text-anchor="middle" x="984" y="-8.2" font-family="sans-serif" font-size="14.00">dependencies</text>
<g id="clust1" class="cluster">
<title>cluster_AppModule</title>
<polygon fill="none" stroke="black" stroke-dasharray="1,5" points="508,-32.8 508,-309.8 923,-309.8 923,-32.8 508,-32.8"/>
</g>
<g id="clust2" class="cluster">
<title>cluster_AppModule_declarations</title>
<polygon fill="none" stroke="black" points="793,-116.8 793,-168.8 915,-168.8 915,-116.8 793,-116.8"/>
</g>
<g id="clust4" class="cluster">
<title>cluster_AppModule_imports</title>
<polygon fill="none" stroke="black" points="516,-40.8 516,-168.8 785,-168.8 785,-40.8 516,-40.8"/>
</g>
<g id="clust6" class="cluster">
<title>cluster_AppModule_bootstrap</title>
<polygon fill="none" stroke="black" points="638,-249.8 638,-301.8 762,-301.8 762,-249.8 638,-249.8"/>
</g>
<g id="clust14" class="cluster">
<title>cluster_AuthModule</title>
<polygon fill="none" stroke="black" stroke-dasharray="1,5" points="947,-108.8 947,-233.8 1227,-233.8 1227,-108.8 947,-108.8"/>
</g>
<g id="clust15" class="cluster">
<title>cluster_AuthModule_declarations</title>
<polygon fill="none" stroke="black" points="955,-116.8 955,-168.8 1085,-168.8 1085,-116.8 955,-116.8"/>
</g>
<g id="clust17" class="cluster">
<title>cluster_AuthModule_imports</title>
<polygon fill="none" stroke="black" points="1093,-116.8 1093,-168.8 1219,-168.8 1219,-116.8 1093,-116.8"/>
</g>
<g id="clust21" class="cluster">
<title>cluster_LayoutComponentModule</title>
<polygon fill="none" stroke="black" stroke-dasharray="1,5" points="1235,-32.8 1235,-241.8 1960,-241.8 1960,-32.8 1235,-32.8"/>
</g>
<g id="clust22" class="cluster">
<title>cluster_LayoutComponentModule_declarations</title>
<polygon fill="none" stroke="black" points="1243,-40.8 1243,-92.8 1939,-92.8 1939,-40.8 1243,-40.8"/>
</g>
<g id="clust28" class="cluster">
<title>cluster_LayoutComponentModule_exports</title>
<polygon fill="none" stroke="black" points="1243,-181.8 1243,-233.8 1952,-233.8 1952,-181.8 1243,-181.8"/>
</g>
<g id="clust31" class="cluster">
<title>cluster_MainModule</title>
<polygon fill="none" stroke="black" stroke-dasharray="1,5" points="8,-32.8 8,-100.8 500,-100.8 500,-32.8 8,-32.8"/>
</g>
<g id="clust32" class="cluster">
<title>cluster_MainModule_declarations</title>
<polygon fill="none" stroke="black" points="174,-40.8 174,-92.8 492,-92.8 492,-40.8 174,-40.8"/>
</g>
<g id="clust35" class="cluster">
<title>cluster_MainModule_imports</title>
<polygon fill="none" stroke="black" points="16,-40.8 16,-92.8 166,-92.8 166,-40.8 16,-40.8"/>
</g>
<!-- AppComponent -->
<g id="node1" class="node">
<title>AppComponent</title>
<polygon fill="#ffffb3" stroke="black" points="906.94,-160.8 801.06,-160.8 801.06,-124.8 906.94,-124.8 906.94,-160.8"/>
<text text-anchor="middle" x="854" y="-138.6" font-family="Times,serif" font-size="14.00">AppComponent</text>
</g>
<!-- AppModule -->
<g id="node2" class="node">
<title>AppModule</title>
<polygon fill="#8dd3c7" stroke="black" points="741.66,-225.8 738.66,-229.8 717.66,-229.8 714.66,-225.8 658.34,-225.8 658.34,-189.8 741.66,-189.8 741.66,-225.8"/>
<text text-anchor="middle" x="700" y="-203.6" font-family="Times,serif" font-size="14.00">AppModule</text>
</g>
<!-- AppComponent&#45;&gt;AppModule -->
<g id="edge1" class="edge">
<title>AppComponent&#45;&gt;AppModule</title>
<path fill="none" stroke="black" d="M801.12,-142.8C765.13,-142.8 724,-142.8 724,-142.8 724,-142.8 724,-179.69 724,-179.69"/>
<polygon fill="black" stroke="black" points="720.5,-179.69 724,-189.69 727.5,-179.69 720.5,-179.69"/>
</g>
<!-- AppComponent  -->
<g id="node6" class="node">
<title>AppComponent </title>
<polygon fill="#80b1d3" stroke="black" points="754.44,-293.8 645.56,-293.8 645.56,-257.8 754.44,-257.8 754.44,-293.8"/>
<text text-anchor="middle" x="700" y="-271.6" font-family="Times,serif" font-size="14.00">AppComponent </text>
</g>
<!-- AppModule&#45;&gt;AppComponent  -->
<g id="edge5" class="edge">
<title>AppModule&#45;&gt;AppComponent </title>
<path fill="none" stroke="black" stroke-dasharray="1,5" d="M700,-226.02C700,-226.02 700,-247.53 700,-247.53"/>
<polygon fill="black" stroke="black" points="696.5,-247.53 700,-257.53 703.5,-247.53 696.5,-247.53"/>
</g>
<!-- AppRoutingModule -->
<g id="node3" class="node">
<title>AppRoutingModule</title>
<polygon fill="#8dd3c7" stroke="black" points="652.27,-84.8 649.27,-88.8 628.27,-88.8 625.27,-84.8 523.73,-84.8 523.73,-48.8 652.27,-48.8 652.27,-84.8"/>
<text text-anchor="middle" x="588" y="-62.6" font-family="Times,serif" font-size="14.00">AppRoutingModule</text>
</g>
<!-- AppRoutingModule&#45;&gt;AppModule -->
<g id="edge2" class="edge">
<title>AppRoutingModule&#45;&gt;AppModule</title>
<path fill="none" stroke="black" d="M652.38,-66.8C660.7,-66.8 666.4,-66.8 666.4,-66.8 666.4,-66.8 666.4,-179.66 666.4,-179.66"/>
<polygon fill="black" stroke="black" points="662.9,-179.66 666.4,-189.66 669.9,-179.66 662.9,-179.66"/>
</g>
<!-- MainModule -->
<g id="node4" class="node">
<title>MainModule</title>
<polygon fill="#8dd3c7" stroke="black" points="648.6,-160.8 645.6,-164.8 624.6,-164.8 621.6,-160.8 559.4,-160.8 559.4,-124.8 648.6,-124.8 648.6,-160.8"/>
<text text-anchor="middle" x="604" y="-138.6" font-family="Times,serif" font-size="14.00">MainModule</text>
</g>
<!-- MainModule&#45;&gt;AppModule -->
<g id="edge3" class="edge">
<title>MainModule&#45;&gt;AppModule</title>
<path fill="none" stroke="black" d="M648.77,-151.8C656.59,-151.8 662.29,-151.8 662.29,-151.8 662.29,-151.8 662.29,-179.77 662.29,-179.77"/>
<polygon fill="black" stroke="black" points="658.79,-179.77 662.29,-189.77 665.79,-179.77 658.79,-179.77"/>
</g>
<!-- MaterialModule -->
<g id="node5" class="node">
<title>MaterialModule</title>
<polygon fill="#8dd3c7" stroke="black" points="777.47,-84.8 774.47,-88.8 753.47,-88.8 750.47,-84.8 670.53,-84.8 670.53,-48.8 777.47,-48.8 777.47,-84.8"/>
<text text-anchor="middle" x="724" y="-62.6" font-family="Times,serif" font-size="14.00">MaterialModule</text>
</g>
<!-- MaterialModule&#45;&gt;AppModule -->
<g id="edge4" class="edge">
<title>MaterialModule&#45;&gt;AppModule</title>
<path fill="none" stroke="black" d="M706.17,-84.94C706.17,-84.94 706.17,-179.73 706.17,-179.73"/>
<polygon fill="black" stroke="black" points="702.67,-179.72 706.17,-189.73 709.67,-179.73 702.67,-179.72"/>
</g>
<!-- MaterialModule&#45;&gt;MainModule -->
<g id="edge22" class="edge">
<title>MaterialModule&#45;&gt;MainModule</title>
<path fill="none" stroke="black" d="M688.34,-85.11C688.34,-104.95 688.34,-133.8 688.34,-133.8 688.34,-133.8 658.64,-133.8 658.64,-133.8"/>
<polygon fill="black" stroke="black" points="658.64,-130.3 648.64,-133.8 658.64,-137.3 658.64,-130.3"/>
</g>
<!-- AuthModule -->
<g id="node8" class="node">
<title>AuthModule</title>
<polygon fill="#8dd3c7" stroke="black" points="1063.55,-225.8 1060.55,-229.8 1039.55,-229.8 1036.55,-225.8 976.45,-225.8 976.45,-189.8 1063.55,-189.8 1063.55,-225.8"/>
<text text-anchor="middle" x="1020" y="-203.6" font-family="Times,serif" font-size="14.00">AuthModule</text>
</g>
<!-- MaterialModule&#45;&gt;AuthModule -->
<g id="edge7" class="edge">
<title>MaterialModule&#45;&gt;AuthModule</title>
<path fill="none" stroke="black" d="M769.81,-84.94C769.81,-123.03 769.81,-207.8 769.81,-207.8 769.81,-207.8 966.42,-207.8 966.42,-207.8"/>
<polygon fill="black" stroke="black" points="966.42,-211.3 976.42,-207.8 966.42,-204.3 966.42,-211.3"/>
</g>
<!-- ReusableModule -->
<g id="node9" class="node">
<title>ReusableModule</title>
<polygon fill="#8dd3c7" stroke="black" points="1211.37,-160.8 1208.37,-164.8 1187.37,-164.8 1184.37,-160.8 1100.63,-160.8 1100.63,-124.8 1211.37,-124.8 1211.37,-160.8"/>
<text text-anchor="middle" x="1156" y="-138.6" font-family="Times,serif" font-size="14.00">ReusableModule</text>
</g>
<!-- MaterialModule&#45;&gt;ReusableModule -->
<g id="edge28" class="edge">
<title>MaterialModule&#45;&gt;ReusableModule</title>
<path fill="none" stroke="black" d="M777.69,-60.8C885.7,-60.8 1119.04,-60.8 1119.04,-60.8 1119.04,-60.8 1119.04,-114.6 1119.04,-114.6"/>
<polygon fill="black" stroke="black" points="1115.54,-114.6 1119.04,-124.6 1122.54,-114.6 1115.54,-114.6"/>
</g>
<!-- LayoutComponentModule -->
<g id="node14" class="node">
<title>LayoutComponentModule</title>
<polygon fill="#8dd3c7" stroke="black" points="1590.04,-160.8 1587.04,-164.8 1566.04,-164.8 1563.04,-160.8 1425.96,-160.8 1425.96,-124.8 1590.04,-124.8 1590.04,-160.8"/>
<text text-anchor="middle" x="1508" y="-138.6" font-family="Times,serif" font-size="14.00">LayoutComponentModule</text>
</g>
<!-- MaterialModule&#45;&gt;LayoutComponentModule -->
<g id="edge13" class="edge">
<title>MaterialModule&#45;&gt;LayoutComponentModule</title>
<path fill="none" stroke="black" d="M762.14,-84.86C762.14,-89.29 762.14,-92.8 762.14,-92.8 762.14,-92.8 1441.86,-92.8 1441.86,-92.8 1441.86,-92.8 1441.86,-114.75 1441.86,-114.75"/>
<polygon fill="black" stroke="black" points="1438.36,-114.75 1441.86,-124.75 1445.36,-114.75 1438.36,-114.75"/>
</g>
<!-- LoginComponent -->
<g id="node7" class="node">
<title>LoginComponent</title>
<polygon fill="#ffffb3" stroke="black" points="1077.28,-160.8 962.72,-160.8 962.72,-124.8 1077.28,-124.8 1077.28,-160.8"/>
<text text-anchor="middle" x="1020" y="-138.6" font-family="Times,serif" font-size="14.00">LoginComponent</text>
</g>
<!-- LoginComponent&#45;&gt;AuthModule -->
<g id="edge6" class="edge">
<title>LoginComponent&#45;&gt;AuthModule</title>
<path fill="none" stroke="black" d="M1020,-160.91C1020,-160.91 1020,-179.79 1020,-179.79"/>
<polygon fill="black" stroke="black" points="1016.5,-179.79 1020,-189.79 1023.5,-179.79 1016.5,-179.79"/>
</g>
<!-- ReusableModule&#45;&gt;MainModule -->
<g id="edge23" class="edge">
<title>ReusableModule&#45;&gt;MainModule</title>
<path fill="none" stroke="black" d="M1119.04,-160.84C1119.04,-168.55 1119.04,-175.8 1119.04,-175.8 1119.04,-175.8 602.49,-175.8 602.49,-175.8 602.49,-175.8 602.49,-170.84 602.49,-170.84"/>
<polygon fill="black" stroke="black" points="605.99,-170.84 602.49,-160.84 598.99,-170.84 605.99,-170.84"/>
</g>
<!-- ReusableModule&#45;&gt;AuthModule -->
<g id="edge8" class="edge">
<title>ReusableModule&#45;&gt;AuthModule</title>
<path fill="none" stroke="black" d="M1174.48,-161.08C1174.48,-182.12 1174.48,-213.8 1174.48,-213.8 1174.48,-213.8 1073.85,-213.8 1073.85,-213.8"/>
<polygon fill="black" stroke="black" points="1073.85,-210.3 1063.85,-213.8 1073.85,-217.3 1073.85,-210.3"/>
</g>
<!-- ReusableModule&#45;&gt;LayoutComponentModule -->
<g id="edge14" class="edge">
<title>ReusableModule&#45;&gt;LayoutComponentModule</title>
<path fill="none" stroke="black" d="M1211.39,-133.8C1211.39,-133.8 1415.77,-133.8 1415.77,-133.8"/>
<polygon fill="black" stroke="black" points="1415.77,-137.3 1425.77,-133.8 1415.77,-130.3 1415.77,-137.3"/>
</g>
<!-- NovaFooterComponent  -->
<g id="node15" class="node">
<title>NovaFooterComponent </title>
<polygon fill="#fb8072" stroke="black" points="1943.7,-225.8 1792.3,-225.8 1792.3,-189.8 1943.7,-189.8 1943.7,-225.8"/>
<text text-anchor="middle" x="1868" y="-203.6" font-family="Times,serif" font-size="14.00">NovaFooterComponent </text>
</g>
<!-- ReusableModule&#45;&gt;NovaFooterComponent  -->
<g id="edge29" class="edge">
<title>ReusableModule&#45;&gt;NovaFooterComponent </title>
<path fill="none" stroke="black" stroke-dasharray="5,2" d="M1156,-160.86C1156,-165.29 1156,-168.8 1156,-168.8 1156,-168.8 1838.56,-168.8 1838.56,-168.8 1838.56,-168.8 1838.56,-179.67 1838.56,-179.67"/>
<polygon fill="black" stroke="black" points="1835.06,-179.67 1838.56,-189.67 1842.06,-179.67 1835.06,-179.67"/>
</g>
<!-- NovaLoginFooterComponent  -->
<g id="node16" class="node">
<title>NovaLoginFooterComponent </title>
<polygon fill="#fb8072" stroke="black" points="1774.65,-225.8 1589.35,-225.8 1589.35,-189.8 1774.65,-189.8 1774.65,-225.8"/>
<text text-anchor="middle" x="1682" y="-203.6" font-family="Times,serif" font-size="14.00">NovaLoginFooterComponent </text>
</g>
<!-- ReusableModule&#45;&gt;NovaLoginFooterComponent  -->
<g id="edge30" class="edge">
<title>ReusableModule&#45;&gt;NovaLoginFooterComponent </title>
<path fill="none" stroke="black" stroke-dasharray="5,2" d="M1137.52,-160.93C1137.52,-171.51 1137.52,-182.8 1137.52,-182.8 1137.52,-182.8 1593.21,-182.8 1593.21,-182.8 1593.21,-182.8 1593.21,-183.48 1593.21,-183.48"/>
<polygon fill="black" stroke="black" points="1589.71,-179.63 1593.21,-189.63 1596.71,-179.63 1589.71,-179.63"/>
</g>
<!-- NovaSidenavComponent  -->
<g id="node17" class="node">
<title>NovaSidenavComponent </title>
<polygon fill="#fb8072" stroke="black" points="1571.26,-225.8 1410.74,-225.8 1410.74,-189.8 1571.26,-189.8 1571.26,-225.8"/>
<text text-anchor="middle" x="1491" y="-203.6" font-family="Times,serif" font-size="14.00">NovaSidenavComponent </text>
</g>
<!-- ReusableModule&#45;&gt;NovaSidenavComponent  -->
<g id="edge31" class="edge">
<title>ReusableModule&#45;&gt;NovaSidenavComponent </title>
<path fill="none" stroke="black" stroke-dasharray="5,2" d="M1211.63,-142.8C1288.62,-142.8 1418.3,-142.8 1418.3,-142.8 1418.3,-142.8 1418.3,-179.69 1418.3,-179.69"/>
<polygon fill="black" stroke="black" points="1414.8,-179.69 1418.3,-189.69 1421.8,-179.69 1414.8,-179.69"/>
</g>
<!-- NvHeaderComponent  -->
<g id="node18" class="node">
<title>NvHeaderComponent </title>
<polygon fill="#fb8072" stroke="black" points="1393.35,-225.8 1250.65,-225.8 1250.65,-189.8 1393.35,-189.8 1393.35,-225.8"/>
<text text-anchor="middle" x="1322" y="-203.6" font-family="Times,serif" font-size="14.00">NvHeaderComponent </text>
</g>
<!-- ReusableModule&#45;&gt;NvHeaderComponent  -->
<g id="edge32" class="edge">
<title>ReusableModule&#45;&gt;NvHeaderComponent </title>
<path fill="none" stroke="black" stroke-dasharray="5,2" d="M1192.96,-160.82C1192.96,-178.17 1192.96,-201.8 1192.96,-201.8 1192.96,-201.8 1240.68,-201.8 1240.68,-201.8"/>
<polygon fill="black" stroke="black" points="1240.68,-205.3 1250.68,-201.8 1240.68,-198.3 1240.68,-205.3"/>
</g>
<!-- NovaFooterComponent -->
<g id="node10" class="node">
<title>NovaFooterComponent</title>
<polygon fill="#ffffb3" stroke="black" points="1599.2,-84.8 1450.8,-84.8 1450.8,-48.8 1599.2,-48.8 1599.2,-84.8"/>
<text text-anchor="middle" x="1525" y="-62.6" font-family="Times,serif" font-size="14.00">NovaFooterComponent</text>
</g>
<!-- NovaFooterComponent&#45;&gt;ReusableModule -->
<g id="edge24" class="edge">
<title>NovaFooterComponent&#45;&gt;ReusableModule</title>
<path fill="none" stroke="black" d="M1497.36,-84.99C1497.36,-93.08 1497.36,-100.8 1497.36,-100.8 1497.36,-100.8 1156,-100.8 1156,-100.8 1156,-100.8 1156,-114.74 1156,-114.74"/>
<polygon fill="black" stroke="black" points="1152.5,-114.74 1156,-124.74 1159.5,-114.74 1152.5,-114.74"/>
</g>
<!-- NovaFooterComponent&#45;&gt;LayoutComponentModule -->
<g id="edge9" class="edge">
<title>NovaFooterComponent&#45;&gt;LayoutComponentModule</title>
<path fill="none" stroke="black" d="M1543.81,-84.81C1543.81,-84.81 1543.81,-114.65 1543.81,-114.65"/>
<polygon fill="black" stroke="black" points="1540.31,-114.65 1543.81,-124.65 1547.31,-114.65 1540.31,-114.65"/>
</g>
<!-- NovaLoginFooterComponent -->
<g id="node11" class="node">
<title>NovaLoginFooterComponent</title>
<polygon fill="#ffffb3" stroke="black" points="1432.65,-84.8 1251.35,-84.8 1251.35,-48.8 1432.65,-48.8 1432.65,-84.8"/>
<text text-anchor="middle" x="1342" y="-62.6" font-family="Times,serif" font-size="14.00">NovaLoginFooterComponent</text>
</g>
<!-- NovaLoginFooterComponent&#45;&gt;ReusableModule -->
<g id="edge25" class="edge">
<title>NovaLoginFooterComponent&#45;&gt;ReusableModule</title>
<path fill="none" stroke="black" d="M1251.12,-72.8C1196.51,-72.8 1137.52,-72.8 1137.52,-72.8 1137.52,-72.8 1137.52,-114.77 1137.52,-114.77"/>
<polygon fill="black" stroke="black" points="1134.02,-114.77 1137.52,-124.77 1141.02,-114.77 1134.02,-114.77"/>
</g>
<!-- NovaLoginFooterComponent&#45;&gt;LayoutComponentModule -->
<g id="edge10" class="edge">
<title>NovaLoginFooterComponent&#45;&gt;LayoutComponentModule</title>
<path fill="none" stroke="black" d="M1429.28,-84.81C1429.28,-84.81 1429.28,-114.65 1429.28,-114.65"/>
<polygon fill="black" stroke="black" points="1425.78,-114.65 1429.28,-124.65 1432.78,-114.65 1425.78,-114.65"/>
</g>
<!-- NovaSidenavComponent -->
<g id="node12" class="node">
<title>NovaSidenavComponent</title>
<polygon fill="#ffffb3" stroke="black" points="1931.26,-84.8 1774.74,-84.8 1774.74,-48.8 1931.26,-48.8 1931.26,-84.8"/>
<text text-anchor="middle" x="1853" y="-62.6" font-family="Times,serif" font-size="14.00">NovaSidenavComponent</text>
</g>
<!-- NovaSidenavComponent&#45;&gt;ReusableModule -->
<g id="edge26" class="edge">
<title>NovaSidenavComponent&#45;&gt;ReusableModule</title>
<path fill="none" stroke="black" d="M1780.46,-84.85C1780.46,-99.17 1780.46,-116.8 1780.46,-116.8 1780.46,-116.8 1192.96,-116.8 1192.96,-116.8 1192.96,-116.8 1192.96,-117.59 1192.96,-117.59"/>
<polygon fill="black" stroke="black" points="1189.46,-114.74 1192.96,-124.74 1196.46,-114.74 1189.46,-114.74"/>
</g>
<!-- NovaSidenavComponent&#45;&gt;LayoutComponentModule -->
<g id="edge11" class="edge">
<title>NovaSidenavComponent&#45;&gt;LayoutComponentModule</title>
<path fill="none" stroke="black" d="M1786.31,-84.84C1786.31,-106.46 1786.31,-139.8 1786.31,-139.8 1786.31,-139.8 1600.37,-139.8 1600.37,-139.8"/>
<polygon fill="black" stroke="black" points="1600.37,-136.3 1590.37,-139.8 1600.37,-143.3 1600.37,-136.3"/>
</g>
<!-- NvHeaderComponent -->
<g id="node13" class="node">
<title>NvHeaderComponent</title>
<polygon fill="#ffffb3" stroke="black" points="1756.35,-84.8 1617.65,-84.8 1617.65,-48.8 1756.35,-48.8 1756.35,-84.8"/>
<text text-anchor="middle" x="1687" y="-62.6" font-family="Times,serif" font-size="14.00">NvHeaderComponent</text>
</g>
<!-- NvHeaderComponent&#45;&gt;ReusableModule -->
<g id="edge27" class="edge">
<title>NvHeaderComponent&#45;&gt;ReusableModule</title>
<path fill="none" stroke="black" d="M1663.86,-84.86C1663.86,-96.24 1663.86,-108.8 1663.86,-108.8 1663.86,-108.8 1174.48,-108.8 1174.48,-108.8 1174.48,-108.8 1174.48,-114.61 1174.48,-114.61"/>
<polygon fill="black" stroke="black" points="1170.98,-114.61 1174.48,-124.61 1177.98,-114.61 1170.98,-114.61"/>
</g>
<!-- NvHeaderComponent&#45;&gt;LayoutComponentModule -->
<g id="edge12" class="edge">
<title>NvHeaderComponent&#45;&gt;LayoutComponentModule</title>
<path fill="none" stroke="black" d="M1710.14,-84.83C1710.14,-104.38 1710.14,-132.8 1710.14,-132.8 1710.14,-132.8 1600.22,-132.8 1600.22,-132.8"/>
<polygon fill="black" stroke="black" points="1600.22,-129.3 1590.22,-132.8 1600.22,-136.3 1600.22,-129.3"/>
</g>
<!-- LayoutComponentModule&#45;&gt;NovaFooterComponent  -->
<g id="edge15" class="edge">
<title>LayoutComponentModule&#45;&gt;NovaFooterComponent </title>
<path fill="none" stroke="black" stroke-dasharray="5,2" d="M1590.26,-146.8C1701.18,-146.8 1884.97,-146.8 1884.97,-146.8 1884.97,-146.8 1884.97,-179.5 1884.97,-179.5"/>
<polygon fill="black" stroke="black" points="1881.47,-179.5 1884.97,-189.5 1888.47,-179.5 1881.47,-179.5"/>
</g>
<!-- LayoutComponentModule&#45;&gt;NovaLoginFooterComponent  -->
<g id="edge16" class="edge">
<title>LayoutComponentModule&#45;&gt;NovaLoginFooterComponent </title>
<path fill="none" stroke="black" stroke-dasharray="5,2" d="M1590.1,-153.8C1593.9,-153.8 1596.16,-153.8 1596.16,-153.8 1596.16,-153.8 1596.16,-179.52 1596.16,-179.52"/>
<polygon fill="black" stroke="black" points="1592.66,-179.52 1596.16,-189.52 1599.66,-179.52 1592.66,-179.52"/>
</g>
<!-- LayoutComponentModule&#45;&gt;NovaSidenavComponent  -->
<g id="edge17" class="edge">
<title>LayoutComponentModule&#45;&gt;NovaSidenavComponent </title>
<path fill="none" stroke="black" stroke-dasharray="5,2" d="M1498.43,-160.91C1498.43,-160.91 1498.43,-179.79 1498.43,-179.79"/>
<polygon fill="black" stroke="black" points="1494.93,-179.79 1498.43,-189.79 1501.93,-179.79 1494.93,-179.79"/>
</g>
<!-- LayoutComponentModule&#45;&gt;NvHeaderComponent  -->
<g id="edge18" class="edge">
<title>LayoutComponentModule&#45;&gt;NvHeaderComponent </title>
<path fill="none" stroke="black" stroke-dasharray="5,2" d="M1425.95,-151.8C1376.17,-151.8 1322.18,-151.8 1322.18,-151.8 1322.18,-151.8 1322.18,-179.77 1322.18,-179.77"/>
<polygon fill="black" stroke="black" points="1318.68,-179.77 1322.18,-189.77 1325.68,-179.77 1318.68,-179.77"/>
</g>
<!-- DashboardComponent -->
<g id="node19" class="node">
<title>DashboardComponent</title>
<polygon fill="#ffffb3" stroke="black" points="483.97,-84.8 342.03,-84.8 342.03,-48.8 483.97,-48.8 483.97,-84.8"/>
<text text-anchor="middle" x="413" y="-62.6" font-family="Times,serif" font-size="14.00">DashboardComponent</text>
</g>
<!-- DashboardComponent&#45;&gt;MainModule -->
<g id="edge19" class="edge">
<title>DashboardComponent&#45;&gt;MainModule</title>
<path fill="none" stroke="black" d="M413,-85.11C413,-104.95 413,-133.8 413,-133.8 413,-133.8 549.22,-133.8 549.22,-133.8"/>
<polygon fill="black" stroke="black" points="549.22,-137.3 559.22,-133.8 549.22,-130.3 549.22,-137.3"/>
</g>
<!-- DemoPageComponent -->
<g id="node20" class="node">
<title>DemoPageComponent</title>
<polygon fill="#ffffb3" stroke="black" points="324.26,-84.8 181.74,-84.8 181.74,-48.8 324.26,-48.8 324.26,-84.8"/>
<text text-anchor="middle" x="253" y="-62.6" font-family="Times,serif" font-size="14.00">DemoPageComponent</text>
</g>
<!-- DemoPageComponent&#45;&gt;MainModule -->
<g id="edge20" class="edge">
<title>DemoPageComponent&#45;&gt;MainModule</title>
<path fill="none" stroke="black" d="M253,-84.81C253,-107.29 253,-142.8 253,-142.8 253,-142.8 549.19,-142.8 549.19,-142.8"/>
<polygon fill="black" stroke="black" points="549.19,-146.3 559.19,-142.8 549.19,-139.3 549.19,-146.3"/>
</g>
<!-- MainRoutingModule -->
<g id="node21" class="node">
<title>MainRoutingModule</title>
<polygon fill="#8dd3c7" stroke="black" points="158.22,-84.8 155.22,-88.8 134.22,-88.8 131.22,-84.8 23.78,-84.8 23.78,-48.8 158.22,-48.8 158.22,-84.8"/>
<text text-anchor="middle" x="91" y="-62.6" font-family="Times,serif" font-size="14.00">MainRoutingModule</text>
</g>
<!-- MainRoutingModule&#45;&gt;MainModule -->
<g id="edge21" class="edge">
<title>MainRoutingModule&#45;&gt;MainModule</title>
<path fill="none" stroke="black" d="M91,-84.83C91,-109.78 91,-151.8 91,-151.8 91,-151.8 549.37,-151.8 549.37,-151.8"/>
<polygon fill="black" stroke="black" points="549.37,-155.3 559.37,-151.8 549.37,-148.3 549.37,-155.3"/>
</g>
</g>
</svg>
